<?xml version="1.0" encoding="UTF-8" standalone="no"?>
<!-- Created with Inkscape (http://www.inkscape.org/) -->

<svg
   xmlns:dc="http://purl.org/dc/elements/1.1/"
   xmlns:cc="http://creativecommons.org/ns#"
   xmlns:rdf="http://www.w3.org/1999/02/22-rdf-syntax-ns#"
   xmlns:svg="http://www.w3.org/2000/svg"
   xmlns="http://www.w3.org/2000/svg"
   xmlns:xlink="http://www.w3.org/1999/xlink"
   xmlns:sodipodi="http://sodipodi.sourceforge.net/DTD/sodipodi-0.dtd"
   xmlns:inkscape="http://www.inkscape.org/namespaces/inkscape"
   width="419.43155"
   height="472.25601"
   viewBox="0 0 419.43155 472.25602"
   id="svg2"
   version="1.1"
   inkscape:version="0.91 r13725"
   sodipodi:docname="kurururu_ogg.svg">
  <defs
     id="defs4">
    <linearGradient
       gradientTransform="matrix(0.97019939,-0.24230795,0.24230795,0.97019939,-106.51967,157.56891)"
       inkscape:collect="always"
       xlink:href="#linearGradient5737"
       id="linearGradient5743-2"
       x1="637.21002"
       y1="271.43008"
       x2="633.02704"
       y2="279.17639"
       gradientUnits="userSpaceOnUse" />
    <linearGradient
       inkscape:collect="always"
       id="linearGradient5737">
      <stop
         style="stop-color:#000000;stop-opacity:1;"
         offset="0"
         id="stop5739" />
      <stop
         style="stop-color:#000000;stop-opacity:0;"
         offset="1"
         id="stop5741" />
    </linearGradient>
    <linearGradient
       inkscape:collect="always"
       xlink:href="#linearGradient5737"
       id="linearGradient5743"
       x1="637.21002"
       y1="271.43008"
       x2="633.02704"
       y2="279.17639"
       gradientUnits="userSpaceOnUse" />
  </defs>
  <sodipodi:namedview
     id="base"
     pagecolor="#ffffff"
     bordercolor="#666666"
     borderopacity="1.0"
     inkscape:pageopacity="0.0"
     inkscape:pageshadow="2"
     inkscape:zoom="1.2316035"
     inkscape:cx="189.67323"
     inkscape:cy="321.30267"
     inkscape:document-units="px"
     inkscape:current-layer="layer1"
     showgrid="false"
     inkscape:window-width="1920"
     inkscape:window-height="1018"
     inkscape:window-x="-8"
     inkscape:window-y="-8"
     inkscape:window-maximized="1"
     units="px"
     borderlayer="true" />
  <metadata
     id="metadata7">
    <rdf:RDF>
      <cc:Work
         rdf:about="">
        <dc:format>image/svg+xml</dc:format>
        <dc:type
           rdf:resource="http://purl.org/dc/dcmitype/StillImage" />
        <dc:title></dc:title>
      </cc:Work>
    </rdf:RDF>
  </metadata>
  <g
     inkscape:label="Layer 1"
     inkscape:groupmode="layer"
     id="layer1"
     transform="translate(0,-580.10615)">
    <g
       transform="matrix(1.2620982,0,0,1.2629154,-562.75286,374.69898)"
       id="g4414"
       style="stroke:none">
      <path
         sodipodi:nodetypes="ccccc"
         inkscape:connector-curvature="0"
         id="path5385-0-9-1-9"
         d="m 446.17829,162.00437 332.41239,0 2.17976,375.38367 -333.50226,0 z"
         style="fill:#c8b7b7;fill-rule:evenodd;stroke:none;stroke-width:0.94841385px;stroke-linecap:butt;stroke-linejoin:miter;stroke-opacity:1" />
      <path
         sodipodi:nodetypes="ccccccccccccccccccccccc"
         inkscape:connector-curvature="0"
         id="path5814"
         d="m 554.31854,259.42774 36.3703,-17.08967 49.9544,2.62918 22.34802,14.89868 -7.88754,53.02177 -8.76393,57.40374 -10.07852,63.97669 -9.64032,19.71884 3.94377,15.77507 3.06738,15.33688 -3.50558,17.52786 -11.89358,34.75121 -15.81911,-0.45644 -12.80491,0.0311 -21.02052,-0.70778 -5.06774,-11.27011 -5.69656,-23.22442 3.94377,-33.74112 2.62919,-26.2918 -24.9772,-38.99948 12.26949,-26.29179 5.69656,-59.59472 z"
         style="fill:#deaa87;fill-rule:evenodd;stroke:none;stroke-width:0.80000001px;stroke-linecap:butt;stroke-linejoin:miter;stroke-opacity:1" />
      <path
         inkscape:connector-curvature="0"
         id="path5808"
         d="m 563.62023,320.6965 17.04185,4.95763 10.2251,3.09852 -3.71822,13.94333 -8.9857,1.2394 -14.25317,3.40837 z"
         style="fill:#000000;fill-rule:evenodd;stroke:none;stroke-width:0.80000001px;stroke-linecap:butt;stroke-linejoin:miter;stroke-opacity:1" />
      <path
         inkscape:connector-curvature="0"
         id="path5806"
         d="m 615.98517,330.3019 14.56303,-4.95762 10.53496,-4.33793 -2.78866,10.22511 0.30984,21.37976 -0.6197,1.23941 -13.94333,-4.64777 -9.29554,-4.95763 z"
         style="fill:#000000;fill-rule:evenodd;stroke:none;stroke-width:0.80000001px;stroke-linecap:butt;stroke-linejoin:miter;stroke-opacity:1" />
      <path
         sodipodi:nodetypes="cccccccccccccccccccccccccccccc"
         inkscape:connector-curvature="0"
         id="path5781-8"
         d="m 721.05229,365.25218 8.49006,1.36936 10.19746,4.11911 1.97027,3.85704 -8.82649,1.17121 -11.55259,-0.18607 -8.60445,12.01737 -3.94376,21.03343 2.73093,14.77034 5.82947,8.67129 8.09106,-1.16879 9.64032,-3.43039 c 0.87639,-2.48311 7.14494,-13.50072 5.10799,-11.32249 l -16.65602,-4.17843 10.38838,-2.72638 10.78252,-3.92176 2.39451,12.19889 -1.50066,9.51198 -6.57294,7.01114 -11.39312,3.83422 -8.32573,1.73855 -10.95491,-3.38179 -7.44934,-5.69655 -4.04097,-10.52128 -2.53197,-17.0851 3.06736,-2.19098 3.06738,-15.77508 6.67927,-8.19283 9.0958,-8.89683 z"
         style="fill:#99ff55;fill-rule:evenodd;stroke:none;stroke-width:0.80000001px;stroke-linecap:butt;stroke-linejoin:miter;stroke-opacity:1" />
      <path
         inkscape:connector-curvature="0"
         id="path5648"
         d="m 622.89628,175.9513 12.4886,15.11779 10.95491,10.95491 -12.26949,-1.97189 -11.83132,-8.32573 0.6573,-15.11778 z"
         style="opacity:1;fill:#ffdd55;fill-rule:evenodd;stroke:none;stroke-width:0.80000001px;stroke-linecap:butt;stroke-linejoin:miter;stroke-opacity:1" />
      <path
         inkscape:connector-curvature="0"
         id="path5650"
         d="m 664.32203,179.40413 7.12659,-4.02807 -6.50688,15.18273 -15.80244,12.39407 0,-4.33792 6.50688,-13.01378 z"
         style="fill:#b3ff80;fill-rule:evenodd;stroke:none;stroke-width:0.80000001px;stroke-linecap:butt;stroke-linejoin:miter;stroke-opacity:1" />
      <path
         sodipodi:nodetypes="ccccccc"
         inkscape:connector-curvature="0"
         id="path5816"
         d="m 555.19493,262.49511 c 33.55796,-4.68358 56.09936,-4.14052 107.35813,4.82017 l -3.50557,27.60637 -7.321,5.19608 c -11.27428,1.62438 -29.80163,-6.91453 -53.15011,-16.151 -12.32787,7.51266 -26.24461,9.85236 -42.14204,8.88316 z"
         style="fill:#aa0000;fill-rule:evenodd;stroke:none;stroke-width:0.80000001px;stroke-linecap:butt;stroke-linejoin:miter;stroke-opacity:1" />
      <path
         sodipodi:nodetypes="ccccc"
         inkscape:connector-curvature="0"
         id="path5769"
         d="m 559.59216,274.21875 0.77462,6.35196 14.71796,5.73226 -4.33792,-20.45022 z"
         style="fill:#e3dbdb;fill-rule:evenodd;stroke:none;stroke-width:0.80000001px;stroke-linecap:butt;stroke-linejoin:miter;stroke-opacity:1" />
      <path
         inkscape:connector-curvature="0"
         id="path5652"
         d="m 568.55992,267.31527 8.54483,-2.19098 6.35385,1.53369 -3.06738,11.6122 -4.38196,7.23024 -3.94377,0.2191 -2.62918,-5.25835 z"
         style="fill:#6c5353;fill-rule:evenodd;stroke:none;stroke-width:0.80000001px;stroke-linecap:butt;stroke-linejoin:miter;stroke-opacity:1" />
      <path
         sodipodi:nodetypes="ccccc"
         inkscape:connector-curvature="0"
         id="path5735-8"
         d="m 568.82883,265.15442 14.99171,3.12225 -0.7526,4.65913 c -4.52307,-1.17581 -7.84523,-1.2432 -13.3392,0.29747 z"
         style="fill:url(#linearGradient5743-2);fill-opacity:1;fill-rule:evenodd;stroke:none;stroke-width:0.80000001px;stroke-linecap:butt;stroke-linejoin:miter;stroke-opacity:1" />
      <path
         sodipodi:nodetypes="cccccccc"
         inkscape:connector-curvature="0"
         id="path5771"
         d="m 623.42161,268.95127 c 0.71436,7.84098 -2.52881,16.75351 2.47881,19.52066 l 8.366,3.40837 12.70392,-6.19704 -0.92956,-5.57733 -3.71821,-5.88718 -11.15467,-6.81674 z"
         style="fill:#e3dbdb;fill-rule:evenodd;stroke:none;stroke-width:0.80000001px;stroke-linecap:butt;stroke-linejoin:miter;stroke-opacity:1" />
      <path
         sodipodi:nodetypes="cccccccc"
         inkscape:connector-curvature="0"
         id="path5652-0"
         d="m 629.48708,268.249 5.6787,1.91455 7.05102,3.62519 -3.76455,9.5207 -4.38196,7.23024 -3.94377,0.2191 -2.62918,-5.25835 z"
         style="fill:#6c5353;fill-rule:evenodd;stroke:none;stroke-width:0.80000001px;stroke-linecap:butt;stroke-linejoin:miter;stroke-opacity:1" />
      <path
         sodipodi:nodetypes="cccccccccccccccccccccccc"
         inkscape:connector-curvature="0"
         id="path5773"
         d="m 589.95763,360.97722 16.11229,6.50689 10.2251,9.91525 2.78867,6.19704 -3.09852,8.67585 1.23941,4.95762 5.26748,8.67585 -2.78867,6.50689 -1.85911,6.19703 -3.71822,7.43644 -14.25318,10.2251 -13.63347,3.40837 -16.11229,-4.95762 -0.6197,-4.02807 5.26748,1.54925 c 5.33802,0.14362 9.74287,-2.97888 14.56303,-4.64777 l 11.15465,-14.87288 4.64778,-5.57733 6.81674,-6.81674 -1.85911,-1.85911 -5.88718,-3.40837 -5.26748,-10.53496 -9.29555,-19.83051 z"
         style="fill:#ffdd55;fill-rule:evenodd;stroke:none;stroke-width:0.80000001px;stroke-linecap:butt;stroke-linejoin:miter;stroke-opacity:1" />
      <path
         sodipodi:nodetypes="cccccccccccccccccccccccccccccc"
         inkscape:connector-curvature="0"
         id="path5781"
         d="m 660.80028,367.66226 8.76393,0 10.07852,6.57295 2.62917,6.13475 -9.64032,-2.19098 -8.76392,3.06737 -11.39312,8.76393 -3.94376,21.03343 3.50556,14.46049 3.39603,3.72467 9.74987,2.84827 9.64032,-2.19098 2.62918,-7.44934 -14.02228,-2.62918 10.07852,-6.13474 6.13475,-1.7528 3.94377,8.32574 1.75278,9.20213 -6.57294,7.01114 -11.39312,2.62918 -8.32573,0 -10.95491,-0.4382 -7.44934,-5.69655 -7.44934,-7.88754 0.8764,-19.71884 3.06736,-2.19098 3.06738,-15.77508 4.82016,-10.51671 10.95491,-6.57295 z"
         style="fill:#99ff55;fill-rule:evenodd;stroke:none;stroke-width:0.80000001px;stroke-linecap:butt;stroke-linejoin:miter;stroke-opacity:1" />
      <path
         inkscape:connector-curvature="0"
         id="path5798"
         d="m 565.1695,454.86229 13.32361,4.33792 9.60541,-0.92955 23.23887,0 12.39407,-4.95763 2.78867,6.81674 -8.9857,2.47881 -11.15466,0.92956 -1.85911,22.61916 -0.92956,21.99948 -0.6197,11.77436 2.47882,7.74629 -9.60541,1.85911 -18.90095,-8.67584 -3.09852,-4.02808 2.78867,-13.32362 4.02807,-23.23887 0,-8.98571 -2.78866,-7.74628 -9.29556,-2.16896 -5.26748,-4.64778 z"
         style="fill:#d3bc5f;fill-rule:evenodd;stroke:none;stroke-width:0.80000001px;stroke-linecap:butt;stroke-linejoin:miter;stroke-opacity:1" />
      <path
         sodipodi:nodetypes="cccccccccccccccccccccccccccccccccccccccc"
         inkscape:connector-curvature="0"
         id="path5804"
         d="m 572.29608,205.74152 -12.08422,17.9714 -13.63347,21.37977 -3.71822,9.6054 0,7.12659 5.0313,-1.19941 -0.30749,22.99241 0.46054,29.89081 -1.21829,14.49952 -3.1212,15.0711 -4.33257,16.24792 12.44828,-6.45442 c 9.44451,1.26436 13.20318,-1.26185 12.73741,-6.60434 l -4.58234,-59.97317 -2.14927,-3.19963 3.31488,-30.25649 15.80244,0 14.56303,-2.78867 5.26748,-1.8591 3.09851,4.64777 17.66155,1.85911 30.36547,8.05614 2.47881,-10.53495 10.22511,19.2108 c -3.68461,12.17749 -9.76167,24.35498 -15.55331,36.53247 l -7.014,28.29173 0.17674,17.55838 3.93315,4.84348 -0.0221,18.28787 15.22219,-8.23417 6.08209,-22.52094 11.80531,-29.41828 1.17239,-46.8898 -2.78867,-38.4216 -7.74628,-14.87288 -16.42215,-13.32363 -4.33792,-1.23941 -21.68962,-4.64777 -19.52066,0.6197 z"
         style="fill:#483737;fill-rule:evenodd;stroke:none;stroke-width:0.80000001px;stroke-linecap:butt;stroke-linejoin:miter;stroke-opacity:1" />
      <path
         sodipodi:nodetypes="ccccccccccccc"
         inkscape:connector-curvature="0"
         id="path5810"
         d="m 541.61084,419.36945 16.00974,8.04246 0.96956,-3.43428 12.03509,-1.06769 -2.28441,10.4818 0.8764,6.57294 -4.82016,14.02229 -14.89868,-7.88754 -1.3146,10.95491 -5.25836,-4.38196 -4.82016,-11.83131 0.8764,-11.3931 z"
         style="fill:#483737;fill-rule:evenodd;stroke:none;stroke-width:0.80000001px;stroke-linecap:butt;stroke-linejoin:miter;stroke-opacity:1" />
      <path
         inkscape:connector-curvature="0"
         id="path5775"
         d="m 562.69068,352.92108 -19.83051,5.26748 -4.64778,6.81674 -8.05614,18.90095 -0.61971,14.87288 5.26748,13.01377 4.64778,6.19704 17.3517,9.91525 4.33792,4.02807 9.29555,2.16896 0.6197,-3.40836 -9.91525,-3.09852 -5.26748,-4.64778 -2.78866,-19.2108 -0.30986,-6.81674 -4.33792,-4.64777 -0.92956,-2.47882 8.05615,-7.12659 2.16897,-0.30985 3.40836,-17.04185 6.81674,-7.12658 8.67585,-1.85911 -2.78867,-3.71823 z"
         style="fill:#ffdd55;fill-rule:evenodd;stroke:none;stroke-width:0.80000001px;stroke-linecap:butt;stroke-linejoin:miter;stroke-opacity:1" />
      <path
         sodipodi:nodetypes="ccccccccccccccccccccc"
         inkscape:connector-curvature="0"
         id="path5812"
         d="m 633.6321,423.75141 7.44933,8.76393 6.13475,5.25836 11.83131,1.75279 3.50557,11.8313 2.19099,12.7077 -7.88754,11.3931 -3.94377,-16.21326 -8.76393,13.58409 2.62918,-13.1459 -5.69656,2.62918 -6.57294,-1.31459 -3.16945,-0.19809 1.40096,-3.47059 -1.5734,-6.50916 -1.83376,9.85436 -1.8355,-0.11472 -4.38196,-10.95491 0.8764,-17.08966 2.19097,-4.38196 z"
         style="fill:#483737;fill-rule:evenodd;stroke:none;stroke-width:0.80000001px;stroke-linecap:butt;stroke-linejoin:miter;stroke-opacity:1" />
      <path
         sodipodi:nodetypes="ccccccccccc"
         inkscape:connector-curvature="0"
         id="path5818"
         d="m 565.63427,216.12156 -19.36573,29.90068 c 5.17144,-4.15671 11.08968,-13.56098 15.49258,-12.39406 36.3864,-8.7582 57.1539,-3.55603 93.26537,2.16896 16.80107,2.2173 14.21691,9.67866 20.45021,23.54872 l -0.92956,-22.30932 -5.57733,-14.56303 -5.88718,-6.50688 c 0.5604,5.45907 5.56464,14.78234 0.15626,15.05117 -35.3682,-11.11419 -63.34745,-7.68648 -99.30881,-4.36128 -3.52723,-0.18854 0.16114,-6.83946 1.70419,-10.53496 z"
         style="fill:#ac9393;fill-rule:evenodd;stroke:none;stroke-width:0.80000001px;stroke-linecap:butt;stroke-linejoin:miter;stroke-opacity:1" />
      <path
         sodipodi:nodetypes="ccccccccccccccccccccccccccccccccccccccccccccccccccccccccccccccccccccccccccccccccccccccccccccccccccccccccccccccsccccccccccccccccccccccccccccccccccccccccccccccccccccccccccccccccscsccccccccccscscsscsscccccccscccccccccccccccccccccccccccccccccccccccccccccccccccccccccccccccccccccccccccccccccccccccccccccccccccccccccccccccccc"
         style="opacity:1;fill:#000000;stroke:none"
         inkscape:connector-curvature="0"
         id="path4640"
         d="m 654.72003,185.63601 c 5.88627,-5.57233 12.71667,-9.96301 19.29063,-14.67806 -2.58762,9.92825 -7.02855,19.59006 -14.22028,27.07391 -3.06552,1.10056 -5.62983,3.12792 -8.26408,4.96992 5.52493,5.46807 12.0173,9.90509 17.22752,15.67437 10.51369,17.62063 8.07759,39.33073 8.4972,58.90921 -0.80426,15.39633 1.73674,31.3835 -2.40113,46.43228 -6.71383,13.3458 -11.95902,27.45621 -15.5374,41.96051 11.02654,-1.04264 22.85735,5.47965 24.85052,16.84444 -5.31512,-2.13162 -11.65597,-4.72664 -17.08765,-1.70298 -5.19856,3.05841 -10.84005,6.56864 -13.21787,12.37267 -3.82316,9.0594 -3.7066,19.42788 -0.92082,28.75373 1.22388,5.3638 6.84206,9.1289 12.23877,8.96671 4.21946,-1.56396 7.61135,-4.74981 11.3296,-7.22898 -5.88626,-1.21641 -11.8075,-2.27064 -17.65879,-3.62607 5.23353,-3.29012 10.65355,-6.30219 16.13186,-9.21 -1.58521,-0.42864 3.59341,-0.64022 2.01985,-1.08044 5.42003,0.74143 3.01553,-0.10122 7.8411,2.8761 0.12827,1.14325 0.11972,1.75231 0.26809,2.64136 -0.78095,6.40645 1.45699,13.68176 -2.37782,19.31203 -5.88626,6.2095 -15.5141,4.9815 -23.30028,5.74611 4.4992,8.61916 7.97268,18.60534 3.70659,28.08179 -0.24477,6.44121 -7.19173,7.19423 -11.71424,9.32585 4.40595,-5.05102 2.36616,-11.73551 1.45699,-17.66697 -2.68087,4.79614 -5.52493,9.49961 -8.3923,14.17991 -0.9791,-0.86887 -1.94654,-1.73773 -2.91399,-2.59502 3.00724,-7.04361 5.07035,-14.41161 6.56231,-21.90704 -3.15877,3.89253 -6.2476,7.83139 -9.51127,11.63124 2.16801,-0.63717 4.33602,-1.26276 6.52734,-1.80725 -4.02131,3.63766 -9.51127,3.81144 -14.52333,2.57185 1.21222,11.23735 4.98875,22.6369 2.10973,33.94376 -1.31713,9.37218 -9.65975,34.13612 -14.25221,42.34982 2.85572,-11.45747 11.03516,-38.73533 13.31973,-50.32023 1.46865,-9.22158 -3.13546,-17.77124 -5.31512,-26.52942 -6.29423,0.79935 -12.56514,1.81883 -18.84771,2.73403 -3.3336,16.41581 -1.86495,33.28342 -4.45258,49.7919 -2.541,-16.1841 -1.2705,-32.90111 2.90234,-48.7145 -3.65997,0.20853 -7.27333,0.45181 -10.92164,0.54449 8.52051,-2.38649 17.11096,-4.62238 25.36339,-7.83139 0.25643,0.69509 0.76929,2.09686 1.02572,2.79196 0.64108,-1.98102 1.09566,-4.01996 1.457,-6.0589 -5.30347,2.61818 -11.1198,4.85407 -17.14593,4.50652 -8.63708,-0.94996 -17.34409,-0.89204 -26.01613,-0.8457 7.996,1.20483 16.06193,1.6914 24.12786,2.27064 -9.41802,3.66083 -19.80349,7.54177 -29.82763,3.47547 -7.14511,-1.48286 -9.79101,-9.61546 -16.49319,-11.74708 -2.65757,-1.05423 -5.29181,-2.1548 -7.86778,-3.37121 0.22146,3.63766 0.55948,7.33324 0.82757,10.99407 -5.83964,-3.09317 -10.78177,-8.2832 -12.18049,-14.86343 -2.90233,-8.54965 -0.13987,-17.47003 0.89751,-26.01968 -6.48072,-8.42222 -12.08724,-17.9566 -12.46023,-28.77689 0.53617,-8.50332 5.18691,-15.80181 7.69294,-23.76063 5.18691,-10.63494 7.00524,-22.41678 10.10573,-33.71206 1.73674,-6.22109 3.20539,-12.69705 2.71584,-19.18459 -1.55025,-17.73649 -2.31954,-35.66991 0.76929,-53.30213 0.80426,32.94746 4.69736,67.94544 -9.03338,98.94663 6.16601,-6.97411 15.68894,-7.70396 24.4076,-8.67709 -0.0932,-1.93468 -0.19815,-3.86936 -0.29139,-5.80403 7.94937,-2.06212 16.10855,-3.12793 24.09288,-5.02785 0.67605,-2.69928 2.01649,-8.08626 2.68088,-10.78554 -8.4972,-3.3017 -17.32077,-5.53758 -26.17931,-7.62287 0.43127,7.1363 1.30547,14.23785 1.59687,21.38573 -5.89792,-18.4895 -5.15634,-32.67264 -7.65071,-51.69504 -0.2006,-2.16477 -0.72985,-2.08378 -1.13789,-3.64603 -0.80427,-11.19101 1.52693,-22.243 2.86736,-33.30658 -6.36415,1.66822 -11.92405,5.23637 -17.25083,8.96671 -0.55949,-5.2943 -1.51528,-10.95932 1.04904,-15.90607 6.07276,-12.07146 14.02213,-23.12346 21.10896,-34.62726 3.05386,-3.97362 5.86646,-7.93016 11.39954,-10.06728 2.21839,-0.94478 2.01838,-0.97484 5.75399,-2.4386 1.76449,-0.28556 2.8052,-0.92305 3.95547,-0.77042 12.56513,-2.71087 25.4916,-4.08947 38.3598,-3.41754 -3.28699,-7.41434 -2.51769,-15.60486 -1.63184,-23.44784 6.09607,6.85826 9.96585,15.77863 18.04344,20.7138 1.18182,1.79527 1.70192,3.01661 2.77412,4.36751 1.2705,1.15849 2.541,2.31698 3.83482,3.46388 2.8324,-5.14369 4.7906,-10.75079 7.80949,-15.79022 m -31.24965,-7.85456 c -0.54783,4.18215 -1.00241,8.3643 -1.30547,12.56962 6.16601,4.48335 12.69335,9.14048 20.52616,9.93984 -7.40154,-6.61498 -13.95219,-14.09882 -19.22069,-22.50946 m 32.74162,9.38377 c -3.11215,4.37909 -4.73232,9.5923 -6.87702,14.44637 8.34567,-5.89671 14.30187,-14.36528 19.7219,-22.86859 -4.53417,2.38649 -9.08,4.95834 -12.84488,8.42222 m -84.59903,21.50157 c -4.30105,3.12793 -6.539,8.22528 -9.52293,12.45377 -6.58562,11.90928 -14.66321,23.27406 -18.25324,36.55036 5.30409,0.14953 31.71006,-13.39074 24.27938,-9.32584 3.72991,-9.30268 10.02413,-17.192 16.97109,-24.33988 -4.13787,8.14419 -7.72791,16.57799 -8.66038,25.78799 5.00041,-0.0695 9.97751,-0.16219 15.01289,-0.22012 1.67846,-3.81143 3.5201,-7.56493 5.85129,-11.0404 0.9791,4.14739 1.72509,8.31795 2.34285,12.53486 5.09366,0.49815 10.17566,0.82252 15.31595,1.19324 1.59686,-7.44909 3.38023,-14.97927 7.35491,-21.58267 0.66439,5.63026 0.24478,11.31845 1.22388,16.92554 5.23353,8.08626 16.55148,7.80822 23.70824,13.58909 0.45459,-8.596 -0.16318,-17.19199 0,-25.78799 2.49438,6.31377 4.83723,12.72022 6.11939,19.41629 0.99075,10.73921 11.23635,16.62434 16.3067,25.27826 2.07476,-4.12423 4.9771,-8.14419 5.1869,-12.91717 0.46624,-17.08772 -1.79502,-35.00956 -10.52534,-50.01201 -7.71625,-7.0552 -16.0153,-16.16093 -27.50808,-15.32682 -5.88627,0.25487 -11.08483,-2.54868 -16.69135,-3.57974 -16.74963,-0.62558 -33.41767,3.37121 -48.51215,10.40324 m 8.67204,47.90356 c -6.23594,2.90781 -12.56513,8.66551 -19.85011,5.68819 -0.0117,2.71087 0,5.42173 0,8.1326 7.37823,-4.80773 16.13186,-9.75449 25.04868,-5.87354 3.1565,2.88563 -0.65858,1.62902 -0.95154,3.44942 -0.96122,5.97284 -2.53424,11.97837 -6.12364,16.92841 -1.50362,2.61819 -4.95379,2.16638 -6.98192,0.44023 -3.45017,-4.58762 -2.96062,-10.48433 -3.27533,-15.89448 -2.48272,2.456 -5.01207,4.87724 -7.52976,7.29848 1.08401,14.40004 2.18113,33.09165 5.04412,42.80915 6.08612,4.57758 20.5743,7.62703 34.91255,11.03747 11.15572,1.86847 30.64065,-4.90212 37.2991,-9.76607 4.82557,-7.64604 6.26171,-15.93543 10.64435,-23.84792 0.65476,-1.03767 1.21163,-2.17331 2.21835,-3.97783 5.73473,-8.50331 5.70526,-12.09582 9.38854,-21.68811 -4.3127,-3.3017 -7.75122,-7.55336 -10.80508,-11.99037 -0.3963,1.50603 -0.78095,3.00048 -1.17725,4.50652 -8.5788,-2.35173 -17.68211,-1.05422 -26.28421,-3.31328 -4.65074,-1.70298 -8.06593,-6.11683 -13.50927,-5.78086 -4.62742,-0.57925 -9.44134,-1.65665 -12.79826,-5.07419 -4.69735,3.12792 -10.47871,3.93887 -15.26932,6.91618 m -9.8726,11.44589 c -1.02573,5.87354 1.11897,11.3532 3.3336,16.62433 4.23228,0.17031 6.55172,-10.44978 8.47389,-16.45056 -3.95137,-0.11585 -7.87943,-0.17377 -11.80749,-0.17377 m 90.60185,7.32165 c -1.41037,4.48336 -3.69494,8.60758 -5.79302,12.78973 -6.71384,12.33792 -10.32719,25.98493 -14.19697,39.37708 -3.83481,8.35271 0.65273,16.89078 1.14229,25.34776 1.13062,6.5918 0.41961,13.28788 0.2098,19.91444 0.72267,-1.28593 1.44534,-2.58343 2.19133,-3.86936 -0.31472,2.44442 -0.6644,4.88883 -1.01407,7.33324 4.11455,-2.38649 8.21745,-4.79615 12.09889,-7.57652 4.53417,-11.07517 6.13104,-23.25089 11.07317,-34.22179 2.65756,-6.26744 6.59728,-12.09464 7.40154,-18.99924 1.17726,-10.55384 0.46624,-21.23512 -1.03738,-31.70787 -2.84405,3.9157 -2.99558,8.85086 -4.05627,13.38056 -1.36375,8.32954 -7.18008,14.77075 -10.38547,22.34727 -8.43893,15.8829 -3.00724,34.73153 -9.06835,51.35586 -1.71343,-7.73871 1.21222,-15.45426 1.15394,-23.21614 0.43127,-13.45007 3.78819,-26.57576 7.83281,-39.3539 0.13988,1.86517 0.26809,3.71875 0.43128,5.58392 3.20539,-8.44539 8.45057,-16.4969 8.80025,-25.7764 1.2705,-5.69977 -3.84647,-8.88562 -6.78377,-12.70864 m 9.59286,7.63445 c 1.22388,-0.59083 2.44775,-1.18166 3.69494,-1.78407 0.54783,1.63347 1.10732,3.25535 1.67846,4.87724 -0.12821,-3.89253 -0.5828,-7.80822 -0.75763,-11.67758 -1.67846,2.79196 -3.22871,5.64185 -4.61577,8.58441 m -51.81078,48.98096 c -2.59928,3.48705 -1.72509,8.60758 -2.7275,12.5812 3.47348,1.43653 6.95861,2.84988 10.51368,4.13581 0.67605,-4.51811 1.37541,-9.03622 2.23795,-13.53117 0.41962,4.93517 0.75764,9.87034 1.15394,14.82868 1.87661,0.69509 3.76488,1.40177 5.65315,2.09686 -0.0932,-9.47645 0.73432,-18.89497 1.88826,-28.27874 -6.23594,2.66453 -12.94978,4.55287 -18.71948,8.16736 m -27.78977,-0.86767 c -1.36375,4.72664 -1.66487,7.93446 -3.73963,12.40623 -7.34326,2.80354 -17.84529,-0.44023 -22.42609,7.63445 6.81875,1.17007 15.14111,0.84569 18.94095,7.69237 -2.52934,1.39019 -4.95378,4.01996 -8.11255,3.37121 -4.16118,-0.19695 -10.8284,-2.59502 -12.63507,3.19743 -1.73674,6.53388 -3.20539,13.13727 -5.30347,19.57848 -2.03979,5.2943 1.03738,10.78554 1.457,16.05667 -1.99317,0.0116 -3.97469,0.0116 -5.9562,0 0.61776,9.03622 2.58762,18.00293 7.16842,25.91542 2.38947,0.44023 4.77895,0.92679 7.15676,1.42494 1.00242,-1.88834 1.99317,-3.78826 2.93731,-5.69977 -0.45662,0.26638 -0.91112,0.53486 -1.36351,0.80545 -0.61003,0.36487 -10.5505,0.50117 -11.15285,0.87367 0.24662,-1.04941 9.84592,-1.94989 10.12273,-3.12906 0.97912,-4.17093 2.10572,-8.92112 3.08711,-12.60601 1.22388,5.75769 -0.14565,13.56939 1.4279,19.2344 0.69936,2.84989 3.93972,3.54498 6.48072,3.73034 7.85613,-4.51811 15.14111,-10.75079 19.92006,-18.45475 2.00482,-6.66131 1.96985,-13.86712 2.10973,-20.74855 -3.34527,-10.25264 -7.07518,-22.18508 -17.04103,-27.87327 0.44293,-2.6066 1.18891,-5.13211 1.98151,-7.63445 11.49279,5.95464 25.58486,9.27951 32.43857,21.36256 0.38464,-1.6103 0.31617,2.05846 0.73578,0.47133 0.0816,1.85358 0.6979,0.31644 0.77949,2.17002 0.59257,-1.26113 0.40859,0.17114 0.34955,1.34358 -0.0478,0.94926 2.54259,1.80566 2.59486,3.86783 -1.49031,-1.09963 -3.03372,-2.05688 -3.42689,-1.64187 -2.17637,2.29729 -2.16556,2.89804 -3.22412,9.5214 1.80627,-1.62642 3.51846,-3.64532 5.16382,-5.7338 1.03992,-1.31999 1.18529,-3.86147 1.47935,-6.11748 0.19844,-1.52239 2.63356,-8.49211 3.28801,-9.2914 -0.23593,0.79854 -2.3692,7.61342 -2.26756,8.98931 0.18873,2.55472 0.60481,5.58639 -0.0684,7.17037 -0.95248,2.24112 -2.02685,4.41576 -3.16596,6.28051 2.47107,0.8457 5.32678,1.35543 7.50645,2.9889 -0.12822,3.33645 -1.92324,6.03574 -3.68329,8.66551 1.60853,1.9926 4.8722,4.39067 2.01648,6.8235 -4.13787,2.35174 -8.36898,4.73823 -10.30387,9.40694 2.98393,1.44811 5.9562,2.90781 8.95178,4.37909 3.03055,-2.69928 7.77453,-4.7498 8.1009,-9.34901 0.36581,-4.26383 0.1336,-10.10091 -0.45183,-12.44266 -0.5705,-2.28197 -1.94952,-5.19749 -2.10324,-5.09376 1.02383,0.83972 3.67754,3.57467 5.11938,2.64982 1.98152,-8.50331 1.09566,-17.66697 4.73233,-25.75323 -0.40796,0.10427 -1.21222,0.32438 -1.62018,0.42864 1.13063,-6.32535 2.03979,-12.70863 2.38947,-19.12667 -7.45982,-6.99728 -18.94095,-6.74241 -26.27255,-13.77444 -1.67846,-3.54498 -0.19816,-7.86615 -0.1865,-11.73551 -3.65997,0.68351 -7.5181,2.34015 -11.21304,0.96155 m 35.10778,11.09834 c 0.1049,3.20901 0.40796,6.42961 1.2705,9.54595 -0.22146,-3.20901 -0.64108,-6.39486 -1.2705,-9.54595 m -96.18506,16.28836 c -3.05387,2.81514 -4.09125,7.04362 -5.69977,10.71604 -4.76729,12.36108 -8.83523,27.79217 -0.80426,39.57401 3.46182,7.03204 11.50444,9.03623 18.06675,12.14098 -1.22388,-6.92777 -2.57597,-13.8903 -2.34285,-20.9455 0.34968,-4.88883 -3.78819,-8.41064 -5.10532,-12.84765 3.2054,-4.46019 7.4132,-8.37589 8.32237,-14.11041 2.33119,-9.25634 8.6021,-16.56641 16.23676,-22.06924 -9.69776,1.63348 -20.4096,1.49446 -28.67368,7.54177 m 51.53104,2.20114 c -0.81592,1.00788 -1.62018,2.01577 -2.4361,3.02365 4.89551,6.95094 8.19415,14.81709 11.25967,22.68324 1.52693,4.86566 6.60893,7.06679 10.30387,10.14837 -3.84647,4.58762 -9.21987,7.9009 -11.92405,13.36897 -3.33361,5.69978 -6.69053,11.71234 -12.02896,15.80181 -4.72067,3.47547 -10.77012,4.14739 -16.34167,5.20162 6.95861,1.43653 14.60493,5.2132 21.22552,0.79936 6.11938,-3.02366 13.1829,-4.66872 18.02013,-9.80083 5.82798,-5.03943 5.24518,-13.21837 8.52051,-19.59006 -2.47106,-4.0663 -4.91882,-8.32955 -5.59486,-13.09094 -0.26809,-3.86936 1.89992,-7.44909 1.85329,-11.29528 -4.47589,-9.09415 -13.69576,-14.00614 -22.85735,-17.24991 m 67.19666,5.83878 c -8.14752,2.37491 -18.27656,6.46438 -19.55871,15.97558 -1.31713,7.10155 -3.04221,14.11041 -5.455,20.92233 -0.69936,7.80822 -2.97227,16.93712 2.541,23.66795 5.04704,5.0626 11.95903,9.44169 19.52375,8.07468 7.61135,-0.56766 17.13428,0.0927 22.33284,-6.61498 4.84888,-5.61868 -0.24477,-13.11411 -1.1656,-19.45105 -4.96544,1.44811 -9.52292,3.93887 -13.60251,7.07838 4.38264,0.7646 8.80025,1.51762 13.19455,2.29381 -7.0281,19.34733 -23.70949,9.89517 -26.30067,8.08055 -2.29623,-5.31747 -5.36859,-8.39335 -5.00726,-14.29006 0.1865,-9.54596 -0.31471,-20.70222 6.539,-28.3135 5.42003,-7.5186 15.35091,-10.03252 24.15117,-10.84346 -4.90716,-3.93887 -10.0591,-9.90509 -17.19256,-6.58023 m -106.53556,13.8903 c 3.25202,-3.35962 5.30347,-7.72713 4.63908,-12.60437 -1.64349,4.17056 -3.24036,8.35271 -4.63908,12.60437 m -7.21504,7.5186 c 1.94654,1.34385 3.04001,4.67116 5.18471,5.72539 2.93924,-1.54039 3.89015,-6.18588 0.87639,-9.4789 -2.1447,1.04264 -4.11456,2.39808 -6.0611,3.75351 m 4.47589,5.03943 c 1.57355,1.20483 3.14711,2.38649 4.75563,3.55657 0.0816,-1.77249 0.16319,-3.54498 0.25644,-5.30589 -1.67846,0.56766 -3.34527,1.15849 -5.01207,1.74932 m 53.27944,1.36702 c -0.25644,1.73773 -2.68054,2.36839 -2.902,4.11771 1.17725,-0.50973 1.70886,7.11033 5.74605,-0.38737 0.0583,-1.49446 0.12822,-2.98891 0.19815,-4.48336 -0.75763,0.18536 -2.28457,0.56766 -3.0422,0.75302 m 12.73997,0.94996 c 1.87661,2.12004 3.77653,4.2169 5.72308,6.2906 1.01407,-2.13162 1.8533,-4.34434 2.56431,-6.59181 -2.07476,0.0811 -6.22428,0.2317 -8.28739,0.30121 m -16.26008,2.40966 c -0.22146,1.842 -0.43127,3.69558 -0.61776,5.54917 0.93247,-0.28963 2.79743,-0.86887 3.72991,-1.14691 -1.00242,-1.49445 -2.0398,-2.96573 -3.11215,-4.40226 m 18.46306,7.9009 c 1.09566,2.14321 2.23794,4.27483 3.53176,6.32536 0.71101,-1.73774 1.45699,-3.47547 2.17966,-5.21321 -1.91158,-0.35913 -3.8115,-0.74143 -5.71142,-1.11215 m -78.66614,11.78184 c -3.43851,11.51539 -2.08642,24.17769 4.25443,34.43033 1.35209,-6.96253 1.96986,-14.4232 5.7697,-20.60954 0.74599,4.5297 1.30547,9.08256 1.95821,13.64701 1.32878,-2.59502 2.66921,-5.16686 4.09124,-7.71554 2.19132,3.51022 3.98634,7.21739 5.44334,11.1215 3.06552,-4.912 4.77895,-10.54226 4.75563,-16.35788 -9.72107,-2.96573 -16.97109,-10.58859 -26.27255,-14.51588 m 56.03025,17.79441 c -9.19656,2.8383 -18.52134,-0.39389 -27.44981,-2.56026 -0.85089,6.13999 -2.20298,12.1989 -4.60411,17.92184 5.90958,1.89992 11.85412,3.99679 18.16,3.89252 12.67004,0.98472 26.02778,1.20483 37.71872,-4.47177 -1.08401,-8.06309 0.66439,-16.02191 2.89068,-23.73746 -2.65756,-1.59871 -5.29181,-3.19743 -7.92606,-4.79615 -5.87461,5.05102 -11.39954,10.94773 -18.78942,13.75128 m 36.51815,-12.01354 c -2.77412,1.51762 -5.5599,3.02366 -8.33402,4.51811 -1.70177,9.73132 0.0117,19.65958 1.70177,29.27504 2.41279,-10.42641 2.16801,-21.28146 4.86054,-31.67311 3.05386,9.58071 -1.70177,20.2504 3.46182,29.33296 5.21022,-3.30169 10.58362,-7.92407 11.57438,-14.3421 -2.13304,-7.04362 -9.46465,-11.04041 -13.26449,-17.1109 m -74.53993,3.51022 c 2.58763,1.76091 5.65315,2.74563 8.71867,1.59872 -2.89068,-0.67192 -5.79302,-1.228 -8.71867,-1.59872 m 89.93746,9.88192 c 1.07235,9.52279 -0.24477,19.16143 -3.77653,28.05863 2.55266,-3.42913 5.07035,-6.88143 7.71625,-10.24105 1.41037,4.04313 2.541,8.1326 3.76488,12.25682 1.5619,-1.11215 3.69494,-1.83041 4.55748,-3.63766 1.1656,-8.94354 -1.38706,-17.71331 -3.45016,-26.33247 -2.94896,-0.0348 -5.88627,-0.0695 -8.81192,-0.10427 m -18.4514,11.10992 c -0.51286,3.9157 -0.9791,7.85456 -1.31712,11.79343 3.42685,-3.18585 2.71584,-7.83139 1.31712,-11.79343 m -66.35743,5.71136 c 8.56714,5.60709 18.53299,8.31796 28.83687,7.42592 -9.61618,-2.49075 -19.27898,-4.76139 -28.83687,-7.42592" />
      <path
         sodipodi:nodetypes="ccccc"
         inkscape:connector-curvature="0"
         id="path5735"
         d="m 629.15387,268.02171 13.7884,6.66182 -1.85911,4.33792 c -4.10338,-2.23675 -7.31021,-3.10711 -13.01377,-2.94359 z"
         style="fill:url(#linearGradient5743);fill-opacity:1;fill-rule:evenodd;stroke:none;stroke-width:0.80000001px;stroke-linecap:butt;stroke-linejoin:miter;stroke-opacity:1" />
      <path
         sodipodi:nodetypes="cccccccccccccc"
         style="opacity:1;fill:#000000;stroke:none"
         inkscape:connector-curvature="0"
         id="path4654"
         d="m 614.62114,268.23982 c 8.57879,-1.33227 18.30223,-5.26302 25.47065,0.99283 4.14953,4.6803 7.61135,9.91667 11.32961,14.95611 -0.33803,0.56766 -1.00242,1.69139 -1.34044,2.25905 -2.65046,-3.60352 -1.74058,-0.12952 -5.52966,0.4845 -0.11656,-3.4523 -0.74125,-7.3428 -1.11424,-10.78352 -2.78578,5.43332 -5.48997,10.91298 -8.52052,16.21886 -3.38023,-1.08898 -8.40395,-1.66822 -9.49961,-5.80403 -1.31713,-6.12841 0.57114,-12.32633 2.63425,-18.04927 -4.29413,-0.46158 -5.23194,1.66923 -12.77275,0.71137 m 15.08063,-0.24798 c -1.63184,5.9894 -3.49679,12.48852 -1.20057,18.55901 3.93716,5.84534 10.52057,-6.27417 12.0989,-12.89399 -3.64832,-1.86517 -7.23836,-3.8346 -10.89833,-5.66502" />
      <path
         sodipodi:nodetypes="ccsc"
         style="opacity:1;fill:#000000;stroke:none"
         inkscape:connector-curvature="0"
         id="path4660"
         d="m 594.97153,294.15869 c 1.14036,1.10747 1.85575,1.49739 2.48273,2.63963 -0.8523,0.54214 -1.99798,1.75298 -3.28105,1.71771 -0.98576,-0.0271 0.0635,-3.63297 0.79832,-4.35734 z" />
      <path
         style="opacity:1;fill:#000000;stroke:none"
         inkscape:connector-curvature="0"
         id="path4668"
         d="m 585.62345,311.07731 c 4.63907,1.58713 9.01006,3.93886 12.75163,7.10154 -4.91882,-0.92679 -9.70943,-2.9889 -12.75163,-7.10154 z" />
      <path
         style="opacity:1;fill:#000000;stroke:none"
         inkscape:connector-curvature="0"
         id="path4670"
         d="m 603.34052,317.95874 c 4.05628,-2.08528 8.13587,-4.19374 11.94737,-6.73083 -0.33802,1.56396 -0.66439,3.11634 -1.00241,4.6803 -3.67163,0.67192 -7.29664,1.39019 -10.94496,2.05053 z" />
      <path
         style="opacity:1;fill:#000000;stroke:none"
         inkscape:connector-curvature="0"
         id="path4678"
         d="m 659.40573,335.7879 c 1.53859,-7.06679 5.19857,-13.50799 9.59287,-19.21935 -2.55266,6.70766 -5.62984,13.22996 -9.59287,19.21935 z" />
      <path
         style="opacity:1;fill:#000000;stroke:none"
         inkscape:connector-curvature="0"
         id="path4680"
         d="m 623.72681,346.50393 c 0.0699,-5.8272 1.52693,-11.67758 5.04704,-16.4158 -1.52694,5.51441 -2.77412,11.14467 -5.04704,16.4158 z" />
      <path
         style="opacity:1;fill:#000000;stroke:none"
         inkscape:connector-curvature="0"
         id="path4688"
         d="m 582.90947,351.71105 c 4.28939,-0.3128 8.71866,-0.54449 12.97309,0.3823 -4.33602,0.13902 -8.67204,0.0811 -12.97309,-0.3823 z" />
      <path
         sodipodi:nodetypes="cccc"
         style="opacity:1;fill:#000000;stroke:none"
         inkscape:connector-curvature="0"
         id="path4690"
         d="m 605.89233,353.18132 c 1.58521,1.01947 7.44285,1.51436 9.02806,2.56858 -2.13304,-0.0579 -4.047,-0.2138 -6.16838,-0.22538 0.53617,-1.00789 -3.41916,-1.3469 -2.85968,-2.3432 z" />
      <path
         sodipodi:nodetypes="csccccccccccccccccccccccccccccc"
         style="opacity:1;fill:#000000;stroke:none"
         inkscape:connector-curvature="0"
         id="path4700"
         d="m 720.69695,365.35412 c 5.25844,-2.00747 11.67219,0.86185 17.21652,4.13541 3.4196,2.01905 5.18636,5.23064 6.30953,7.32381 l -2.34207,-0.68196 c -4.8955,-1.32068 -11.75843,0.58597 -16.81712,-0.0396 -11.79584,5.07419 -13.85895,18.53584 -14.65155,29.71527 -0.61777,7.982 -0.95579,18.44316 6.28257,23.67954 9.27815,3.26694 19.37222,-3.49864 22.41442,-12.34951 -7.36657,0.0927 -14.82639,-1.3786 -19.97833,-7.14788 8.69536,-2.54868 17.90357,-3.12792 26.4474,-6.30218 2.00482,9.10573 7.13345,19.83334 -1.36375,27.34036 -8.41561,5.4449 -18.17166,11.33003 -28.68534,9.83558 -10.43209,-1.6103 -15.85212,-12.12939 -19.75687,-20.77173 -4.51086,-11.01724 -0.80426,-23.15821 3.64832,-33.51511 5.21022,-8.03992 8.76288,-19.77248 19.64955,-20.7572 m -4.53176,5.66207 c -12.16883,11.8166 -20.81756,29.14761 -16.50485,46.38594 3.03055,8.26004 8.34567,17.51637 17.70542,19.55531 9.95419,2.6877 20.10654,-2.09686 27.57802,-8.32954 5.38506,-5.9083 1.7484,-14.64331 0.79261,-21.69852 -5.7464,1.73774 -11.50445,3.4523 -17.33243,4.85408 5.00041,2.01577 10.38547,1.13532 15.60734,0.63717 -1.67846,4.39067 -3.03055,9.05939 -5.93289,12.85923 -3.1238,4.08947 -8.39229,5.36381 -12.8915,7.34483 -3.7244,-0.27809 -4.09454,1.5559 -10.61859,-3.44071 -7.93771,-7.55336 -6.77212,-19.3352 -6.51568,-29.20554 0.57114,-7.17105 5.29638,-15.74162 10.40169,-21.45298 2.90234,-5.94305 16.71485,-3.50539 21.8901,-5.59067 -2.30644,-4.14795 -13.7483,-10.1831 -22.32013,-3.39039 m -6.97608,24.91963 c 2.61094,-6.37169 5.78136,-12.47694 9.11497,-18.50108" />
      <path
         sodipodi:nodetypes="ccccccccc"
         style="opacity:1;fill:#000000;stroke:none"
         inkscape:connector-curvature="0"
         id="path4702"
         d="m 577.90332,368.18017 c 3.65997,10.17154 -1.91708,25.43538 -6.95246,33.52164 -0.57824,0.57824 -0.23774,3.09231 -0.0889,3.06912 1.69274,3.99992 2.5569,4.47005 5.73415,7.01076 -6.08042,-1.25599 -4.23875,3.08996 -6.87389,-5.53172 -0.43585,-1.56497 -1.45316,-2.75072 2.05393,-9.68769 0.0466,-3.49864 -8.09063,-1.28093 -8.78999,-4.66372 0.92144,2.01611 5.44706,1.56417 11.1445,-0.81594 3.19451,-3.39557 3.71757,-15.55323 3.77266,-22.90245 z" />
      <path
         sodipodi:nodetypes="csccscscscc"
         style="opacity:1;fill:#000000;stroke:none"
         inkscape:connector-curvature="0"
         id="path4710"
         d="m 572.375,404.05712 c 0.13766,-1.11673 0.93236,-3.28167 1.78057,-3.63948 1.03349,-0.43596 1.95556,-0.2435 3.28074,-0.30712 1.51528,1.29751 0.98637,0.73685 1.63454,3.18564 -0.67785,1.45361 -2.2321,1.87116 -4.65811,2.14355 -0.78753,0.0884 -1.19692,-1.28568 -1.99673,-1.28852 0.6857,-0.30966 1.11097,0.0977 2.17716,0.0958 1.13623,-0.002 2.10638,0.89668 2.7058,-1.45409 -0.68885,-1.48911 -0.98574,-1.13088 -2.65622,-0.86934 -1.41409,0.2214 -1.6351,1.24382 -2.26775,2.13353 z" />
      <path
         sodipodi:nodetypes="ccc"
         style="opacity:1;fill:#000000;stroke:none"
         inkscape:connector-curvature="0"
         id="path4714"
         d="m 593.73209,409.56068 c -3.1238,7.44909 -21.27521,6.36542 -22.85709,-1.18981 6.00041,5.31346 17.85668,7.05177 22.85709,1.18981 z" />
      <path
         sodipodi:nodetypes="ccccc"
         style="opacity:1;fill:#000000;stroke:none"
         inkscape:connector-curvature="0"
         id="path4718"
         d="m 561.84527,456.71108 c 1.18891,15.34999 -2.76247,30.72316 -1.65515,46.11949 0.93248,7.35641 7.73415,27.25833 8.62001,34.63791 -3.11215,-8.36429 -11.20763,-29.62165 -11.23095,-38.65787 -0.34968,-14.122 0.31472,-28.4641 4.26609,-42.09953 z" />
      <path
         style="opacity:1;fill:#000000;stroke:none"
         inkscape:connector-curvature="0"
         id="path4720"
         d="m 579.63228,469.5124 c 1.5619,6.25584 3.45017,12.5001 4.02131,18.94131 -0.75764,9.73131 -5.80467,18.35048 -8.31071,27.65315 7.98434,6.754 17.88026,9.96302 27.81115,12.61596 -11.38789,2.8383 -21.37705,-4.8309 -30.79508,-9.90509 1.67846,-16.56641 8.75364,-32.4493 7.27333,-49.30533 m -2.59928,33.23707 c 1.6668,-5.66501 3.59004,-11.29527 4.32436,-17.1804 -2.28457,5.47965 -4.07959,11.21418 -4.32436,17.1804 z" />
      <path
         style="opacity:1;fill:#000000;stroke:none"
         inkscape:connector-curvature="0"
         id="path4722"
         d="m 599.21431,510.97475 c 4.81391,5.05102 7.57638,11.73551 5.96785,18.7212 -2.31953,-6.14 -4.6857,-12.27999 -5.96785,-18.7212 z" />
      <path
         sodipodi:nodetypes="cccc"
         inkscape:connector-curvature="0"
         id="path5684"
         d="m 571.07955,274.87416 c 2.58024,-1.48626 5.38114,-1.86921 8.54483,-0.43819 -1.33993,4.74886 -0.27368,5.60161 -4.82016,8.98302 -2.51337,-2.21237 -2.85623,-5.50999 -3.72467,-8.54483 z"
         style="fill:#c8b7b7;fill-rule:evenodd;stroke:none;stroke-width:0.80000001px;stroke-linecap:butt;stroke-linejoin:miter;stroke-opacity:1" />
      <path
         sodipodi:nodetypes="cccc"
         inkscape:connector-curvature="0"
         id="path5684-8"
         d="m 629.29123,277.15892 c 3.47569,-0.69999 6.79728,-0.14078 9.86557,2.48867 -3.26372,4.62706 -2.36551,5.91039 -8.76951,7.9613 -2.04307,-3.24193 -1.2229,-6.89582 -1.09606,-10.44997 z"
         style="fill:#c8b7b7;fill-rule:evenodd;stroke:none;stroke-width:0.80000001px;stroke-linecap:butt;stroke-linejoin:miter;stroke-opacity:1" />
      <path
         sodipodi:nodetypes="ccccc"
         inkscape:connector-curvature="0"
         id="path5701"
         d="m 629.46923,270.7113 c -1.88011,2.18295 -0.99242,3.1797 1.20504,3.61512 2.06621,-0.55384 3.97424,-1.17095 4.60107,-2.30054 -0.4087,-1.23004 -0.79685,-2.47241 -2.62919,-2.84827 -1.45571,-0.14999 -2.59602,0.22567 -3.17692,1.53369 z"
         style="fill:#e3dbdb;fill-rule:evenodd;stroke:none;stroke-width:0.80000001px;stroke-linecap:butt;stroke-linejoin:miter;stroke-opacity:1" />
      <path
         sodipodi:nodetypes="ccccc"
         inkscape:connector-curvature="0"
         id="path5701-0"
         d="m 569.78418,269.13834 c -1.88011,2.18295 -0.99242,3.1797 1.20504,3.61512 2.06621,-0.55384 3.97424,-1.17095 4.60107,-2.30054 -0.4087,-1.23004 -0.79685,-2.47241 -2.62919,-2.84827 -1.45571,-0.14999 -2.59602,0.22567 -3.17692,1.53369 z"
         style="fill:#e3dbdb;fill-rule:evenodd;stroke:none;stroke-width:0.80000001px;stroke-linecap:butt;stroke-linejoin:miter;stroke-opacity:1" />
      <path
         sodipodi:nodetypes="cccc"
         inkscape:connector-curvature="0"
         id="path5718"
         d="m 572.29608,276.38771 c 1.84201,4.87001 3.83992,4.03615 5.88718,0.46478 -0.64468,2.23478 -1.24826,4.53121 -3.09852,4.95762 -2.47691,-0.26011 -2.21804,-3.256 -2.78866,-5.4224 z"
         style="fill:#ffe6d5;fill-rule:evenodd;stroke:none;stroke-width:0.80000001px;stroke-linecap:butt;stroke-linejoin:miter;stroke-opacity:1" />
      <path
         sodipodi:nodetypes="cccc"
         inkscape:connector-curvature="0"
         id="path5718-1"
         d="m 630.03174,280.36703 c 0.52126,5.18057 2.66678,4.89119 5.56722,1.97 -1.20016,1.99235 -2.37655,4.05487 -4.27416,3.98878 -2.32561,-0.89121 -1.30152,-3.71851 -1.29306,-5.95878 z"
         style="fill:#ffe6d5;fill-rule:evenodd;stroke:none;stroke-width:0.80000001px;stroke-linecap:butt;stroke-linejoin:miter;stroke-opacity:1" />
      <path
         inkscape:connector-curvature="0"
         id="path6057"
         d="m 643.27242,379.49357 23.6626,0.4382 14.02229,-2.19099 -9.64032,-8.76392 -10.51671,-0.8764 z"
         style="fill:none;fill-rule:evenodd;stroke:none;stroke-width:0.80000001px;stroke-linecap:butt;stroke-linejoin:miter;stroke-opacity:1" />
      <path
         sodipodi:nodetypes="ccccc"
         inkscape:connector-curvature="0"
         id="path6067"
         d="m 587.18327,526.50848 c 1.65673,3.86248 2.14618,7.49151 2.35531,11.06447 l 1.05117,-0.19671 c 0.34293,-3.26926 0.59686,-6.6164 2.07098,-8.89587 z"
         style="fill:#000000;fill-rule:evenodd;stroke:none;stroke-width:0.80000001px;stroke-linecap:butt;stroke-linejoin:miter;stroke-opacity:1" />
      <path
         inkscape:connector-curvature="0"
         id="path6077"
         d="m 588.71822,439.98941 -0.92956,5.26748 3.71823,-5.88719 z"
         style="fill:#000000;fill-rule:evenodd;stroke:none;stroke-width:0.80000001px;stroke-linecap:butt;stroke-linejoin:miter;stroke-opacity:1" />
    </g>
  </g>
</svg>
