<?xml version="1.0" encoding="UTF-8" standalone="no"?>
<!-- Created with Inkscape (http://www.inkscape.org/) -->

<svg
   xmlns:dc="http://purl.org/dc/elements/1.1/"
   xmlns:cc="http://creativecommons.org/ns#"
   xmlns:rdf="http://www.w3.org/1999/02/22-rdf-syntax-ns#"
   xmlns:svg="http://www.w3.org/2000/svg"
   xmlns="http://www.w3.org/2000/svg"
   xmlns:sodipodi="http://sodipodi.sourceforge.net/DTD/sodipodi-0.dtd"
   xmlns:inkscape="http://www.inkscape.org/namespaces/inkscape"
   width="419.43155"
   height="472.25601"
   viewBox="0 0 419.43155 472.25602"
   id="svg2"
   version="1.1"
   inkscape:version="0.91 r13725"
   sodipodi:docname="kurururu_pdf.svg">
  <defs
     id="defs4" />
  <sodipodi:namedview
     id="base"
     pagecolor="#ffffff"
     bordercolor="#666666"
     borderopacity="1.0"
     inkscape:pageopacity="0.0"
     inkscape:pageshadow="2"
     inkscape:zoom="1.2316035"
     inkscape:cx="189.67323"
     inkscape:cy="321.30267"
     inkscape:document-units="px"
     inkscape:current-layer="layer1"
     showgrid="false"
     inkscape:window-width="1920"
     inkscape:window-height="1018"
     inkscape:window-x="-8"
     inkscape:window-y="-8"
     inkscape:window-maximized="1"
     units="px"
     borderlayer="true" />
  <metadata
     id="metadata7">
    <rdf:RDF>
      <cc:Work
         rdf:about="">
        <dc:format>image/svg+xml</dc:format>
        <dc:type
           rdf:resource="http://purl.org/dc/dcmitype/StillImage" />
        <dc:title></dc:title>
      </cc:Work>
    </rdf:RDF>
  </metadata>
  <g
     inkscape:label="Layer 1"
     inkscape:groupmode="layer"
     id="layer1"
     transform="translate(0,-580.10615)">
    <g
       transform="matrix(1.2621104,0,0,1.2607945,-75.373178,-138.2151)"
       id="g4463"
       style="stroke:none">
      <path
         sodipodi:nodetypes="ccccc"
         inkscape:connector-curvature="0"
         id="path5385-0-9"
         d="m 60.009854,570.17778 332.412396,0 2.17975,375.38367 -333.502261,0 z"
         style="fill:#c8b7b7;fill-rule:evenodd;stroke:none;stroke-width:0.94841385px;stroke-linecap:butt;stroke-linejoin:miter;stroke-opacity:1" />
      <path
         inkscape:connector-curvature="0"
         id="path5918"
         d="m 180.97514,655.99554 22.34802,-24.9772 18.40426,7.01115 16.65146,-7.01115 18.40425,26.29179 -7.88754,55.21276 3.94377,32.42653 10.95491,16.21328 12.26951,21.47162 9.64032,7.44934 3.06737,1.31459 -1.31458,27.60639 -0.8764,4.38192 -10.51671,0 -3.50557,-8.76392 -0.4382,-10.07848 -4.38197,-8.76394 -49.95439,29.79738 -19.28065,1.7528 -3.06738,5.69648 -3.50556,-5.69648 -2.19099,4.82016 -8.76393,-5.69656 -1.31459,-7.44936 -17.08966,-11.39312 -5.69655,-99.90879 -4.38197,-32.86474 23.22441,-21.03343 z"
         style="fill:#deaa87;fill-rule:evenodd;stroke:none;stroke-width:0.80000001px;stroke-linecap:butt;stroke-linejoin:miter;stroke-opacity:1" />
      <path
         sodipodi:nodetypes="cccccc"
         inkscape:connector-curvature="0"
         id="path5920"
         d="m 153.68644,678.57521 c 40.30914,-22.71604 71.47585,-18.51002 97.91314,-9.91525 l 0.6197,30.67531 c -18.38453,0.29701 -36.76907,1.20299 -55.1536,-3.40837 -11.01569,8.60825 -23.45346,8.66784 -39.35117,12.39408 z"
         style="fill:#aa0000;fill-rule:evenodd;stroke:none;stroke-width:0.80000001px;stroke-linecap:butt;stroke-linejoin:miter;stroke-opacity:1" />
      <path
         inkscape:connector-curvature="0"
         id="path5924"
         d="m 230.21981,690.34958 10.53496,-5.26748 -6.50689,-7.43644 z"
         style="fill:#e3dbdb;fill-rule:evenodd;stroke:none;stroke-width:0.80000001px;stroke-linecap:butt;stroke-linejoin:miter;stroke-opacity:1" />
      <path
         inkscape:connector-curvature="0"
         id="path5874"
         d="m 222.47352,725.98252 16.11229,-9.6054 5.57733,-4.02807 7.43644,21.06991 -6.19704,9.6054 -5.26748,-2.16896 -19.2108,-2.47881 z"
         style="fill:#000000;fill-rule:evenodd;stroke:none;stroke-width:0.80000001px;stroke-linecap:butt;stroke-linejoin:miter;stroke-opacity:1" />
      <path
         inkscape:connector-curvature="0"
         id="path5870"
         d="m 168.24947,727.22193 27.5768,6.81673 -0.6197,8.67585 -14.25318,4.95763 -9.60541,-4.64778 -6.81673,2.78867 z"
         style="fill:#000000;fill-rule:evenodd;stroke:none;stroke-width:0.80000001px;stroke-linecap:butt;stroke-linejoin:miter;stroke-opacity:1" />
      <path
         inkscape:connector-curvature="0"
         id="path5922"
         d="m 160.19333,694.06779 14.87288,2.78867 -2.78867,-17.35169 -8.05614,5.57733 z"
         style="fill:#e3dbdb;fill-rule:evenodd;stroke:none;stroke-width:0.80000001px;stroke-linecap:butt;stroke-linejoin:miter;stroke-opacity:1" />
      <path
         inkscape:connector-curvature="0"
         id="path5820"
         d="m 169.14384,682.72553 1.31458,7.66843 2.41008,4.38197 8.76394,-0.2191 1.97188,-2.19098 -4.38196,-15.77507 z"
         style="fill:#6c5353;fill-rule:evenodd;stroke:none;stroke-width:0.80000001px;stroke-linecap:butt;stroke-linejoin:miter;stroke-opacity:1" />
      <path
         inkscape:connector-curvature="0"
         id="path5862"
         d="m 169.47249,685.46426 4.60105,-7.44935 6.02521,-0.10955 1.42414,7.33979 -6.4634,-0.54774 -5.14881,3.06737 z"
         style="fill:#241c1c;fill-rule:evenodd;stroke:none;stroke-width:0.80000001px;stroke-linecap:butt;stroke-linejoin:miter;stroke-opacity:1" />
      <path
         inkscape:connector-curvature="0"
         id="path5866"
         d="m 191.49186,577.33927 11.39311,16.65147 11.61221,5.69656 2.62917,6.13475 -5.47745,0.43819 -19.06155,-8.76393 -6.35385,-6.35385 z"
         style="fill:#ffdd55;fill-rule:evenodd;stroke:none;stroke-width:0.80000001px;stroke-linecap:butt;stroke-linejoin:miter;stroke-opacity:1" />
      <path
         inkscape:connector-curvature="0"
         id="path5880"
         d="m 172.64941,613.92868 23.66261,-4.82016 17.52786,-3.50558 7.88754,1.3146 12.70769,5.69655 10.07852,9.64033 11.39311,15.33687 7.88753,12.2695 -0.87639,14.46048 -2.19098,1.31459 -3.50557,13.1459 0.4382,8.32573 6.13474,21.90982 0,16.65147 1.75279,6.57295 0.4382,16.65146 -1.75279,11.83131 -4.38197,-3.06738 -2.19097,-13.58409 -3.06738,-8.32573 -3.06737,0.4382 -7.44935,-24.9772 0.87639,-29.79736 2.19099,-17.08967 0,-5.25836 -7.88754,-4.82016 -7.88753,-13.14589 3.50556,13.14589 -10.51671,-0.87639 -15.77507,4.82016 -1.91044,0.7131 -8.36599,-20.14036 -0.92956,18.74604 -17.04184,8.67584 -5.88719,-2.47881 -15.64751,8.366 -1.39433,15.02781 c 0,0 0.15492,9.6054 0.30985,10.38003 0.15493,0.77462 6.66182,16.26721 6.66182,16.26721 l 6.35196,20.14036 -5.42241,12.23914 -4.02807,1.08448 1.39433,14.71796 2.16896,31.1401 3.40837,8.9857 -2.78866,6.19704 -2.63375,-3.4084 -8.21106,9.60544 -2.16897,-15.02783 -2.94359,6.66183 0.92956,5.26744 -4.33793,-4.80264 -2.32389,-15.02785 4.95764,-16.11229 4.95762,-14.09824 2.01404,-11.77437 -1.23941,-22.61918 -2.78866,-16.42213 -10.84482,-22.92903 -1.2394,-9.76033 2.47881,-12.70392 7.28152,-23.23888 12.08422,-20.4502 4.64777,-6.19704 z"
         style="fill:#483737;fill-rule:evenodd;stroke:none;stroke-width:0.80000001px;stroke-linecap:butt;stroke-linejoin:miter;stroke-opacity:1" />
      <path
         inkscape:connector-curvature="0"
         id="path5882"
         d="m 164.76187,807.3924 4.82016,6.57296 11.39311,6.35384 0.8764,7.88752 9.20212,3.72472 1.75279,-3.06736 3.50557,3.06736 4.82016,-4.60104 6.35385,3.94376 9.85942,-3.72472 10.29761,-3.94376 29.35917,-17.08968 -3.28647,14.24144 2.19098,9.20208 1.31459,5.2584 6.79205,-1.7528 -0.4382,10.07848 -3.28648,14.89872 2.62918,24.31992 9.85942,15.77504 10.73582,23.88168 -1.75279,4.60112 -14.02229,4.82016 -30.23555,-1.31464 -2.41008,1.97192 -33.52203,-3.28648 -23.66261,6.79208 -24.31991,-0.43824 -14.02228,-4.82016 -2.62918,-6.35384 3.50557,-10.73584 7.23024,-10.51672 8.54483,-5.47744 0.4382,-5.25832 -1.0955,-17.08968 -1.31458,-10.73584 -7.44934,-17.966 -4.16287,-10.51672 3.28647,-10.29768 10.51672,-12.9268 6.79204,-7.23024 z"
         style="fill:#e9c6af;fill-rule:evenodd;stroke:none;stroke-width:0.80000001px;stroke-linecap:butt;stroke-linejoin:miter;stroke-opacity:1" />
      <path
         inkscape:connector-curvature="0"
         id="path5884"
         d="m 150.58793,823.89568 36.87234,21.6896 29.74577,-8.366 21.37977,13.94336 14.87288,-6.50696 6.50689,7.74632 3.09851,-7.74632 -8.05615,-4.9576 -15.80243,6.19704 -19.52065,-14.56304 -30.98518,9.60544 -35.01324,-23.54872 z"
         style="fill:#c83737;fill-rule:evenodd;stroke:none;stroke-width:0.80000001px;stroke-linecap:butt;stroke-linejoin:miter;stroke-opacity:1" />
      <path
         inkscape:connector-curvature="0"
         id="path5886"
         d="m 153.9963,861.07784 -4.02808,-4.9576 22.30932,-7.12656 12.70392,8.05608 28.81621,-9.9152 14.56303,17.97136 9.91525,-5.57728 14.56303,9.60536 8.366,-8.98568 1.2394,13.3236 -11.46451,4.64776 -15.18273,-10.22512 -10.22511,8.05616 -18.28125,-21.99944 -24.16843,12.08424 -7.74629,-10.84488 z"
         style="fill:#d35f5f;fill-rule:evenodd;stroke:none;stroke-width:0.80000001px;stroke-linecap:butt;stroke-linejoin:miter;stroke-opacity:1" />
      <path
         inkscape:connector-curvature="0"
         id="path5888"
         d="m 156.16526,881.52808 17.04184,-8.05616 6.81673,13.01376 11.46451,-7.4364 19.21081,9.60536 13.32363,-9.60536 4.95762,10.8448 8.67585,-11.7744 16.73199,13.01376 7.7463,-3.71816 8.05614,9.60536 -17.9714,4.64776 -16.42214,-15.18272 -13.32362,18.59112 0,-20.14032 -13.63348,12.08416 -21.06991,-12.08416 -18.90095,9.9152 0.30984,-16.11224 -12.39406,14.87288 z"
         style="fill:#a02c2c;fill-rule:evenodd;stroke:none;stroke-width:0.80000001px;stroke-linecap:butt;stroke-linejoin:miter;stroke-opacity:1" />
      <path
         inkscape:connector-curvature="0"
         id="path5890"
         d="m 146.8697,912.82312 8.9857,-13.01376 11.77437,5.57728 16.42213,-5.8872 11.77437,15.1828 15.18274,-9.91528 26.64724,10.53496 8.05614,-9.2956 8.05615,2.16896 7.74629,-8.98568 13.01377,8.05616 5.57734,9.91528 -15.18274,-6.19704 -15.80244,14.2532 -7.12658,-8.366 -7.43644,7.4364 -17.66156,-10.8448 -17.04184,5.8872 -15.49258,-7.74632 -15.18274,-5.26744 -10.2251,4.33792 -7.7463,11.77432 -13.63347,-4.33792 4.64778,-5.57728 4.02807,5.57728 z"
         style="fill:#782121;fill-rule:evenodd;stroke:none;stroke-width:0.80000001px;stroke-linecap:butt;stroke-linejoin:miter;stroke-opacity:1" />
      <path
         inkscape:connector-curvature="0"
         id="path5898"
         d="m 234.24788,746.74258 -8.05614,6.81674 -11.15466,0 -6.81674,5.57733 -0.6197,-2.47881 -19.83051,-4.33793 -9.91526,-5.26748 -7.12658,-4.02807 -4.33793,3.09852 12.08422,6.19703 16.11228,9.60541 7.43644,0 14.87288,1.54926 9.29556,-5.88719 10.8448,-9.6054 z"
         style="fill:#f4eed7;fill-rule:evenodd;stroke:none;stroke-width:0.80000001px;stroke-linecap:butt;stroke-linejoin:miter;stroke-opacity:1" />
      <path
         inkscape:connector-curvature="0"
         id="path5900"
         d="m 161.12288,747.98199 7.12659,53.29449 -2.78866,7.43648 11.77436,9.60536 7.12659,1.54928 3.40837,4.33792 0.30985,-4.33792 2.16896,-1.54927 2.16896,9.6054 1.85911,1.85911 2.47882,-8.9857 2.78866,0 -0.30985,6.81674 7.74629,2.47881 6.81674,0.30985 4.95763,-4.33792 6.81673,-1.23941 14.56303,-9.91525 13.94333,-6.50689 11.77436,-8.67585 0.92956,-4.02807 -4.02807,-20.76006 -3.40837,-19.21081 -3.40837,-19.2108 -8.366,2.47881 -11.46451,9.91526 -10.2251,8.98569 -8.05615,5.26748 -15.18273,-1.2394 -12.08422,-3.09852 -15.49258,-8.67585 -8.67585,-4.64777 -4.02807,0.30985 z"
         style="fill:#ffdd55;fill-opacity:1;fill-rule:evenodd;stroke:none;stroke-width:0.80000001px;stroke-linecap:butt;stroke-linejoin:miter;stroke-opacity:1" />
      <path
         sodipodi:nodetypes="ccccccccccccccccccccccccccccccccccccccccc"
         inkscape:connector-curvature="0"
         id="path5910"
         d="m 266.86165,797.533 5.69656,3.50556 2.19097,7.01112 0,11.39312 3.06738,3.94376 6.82964,-0.46701 2.37249,1.78165 0.4382,7.44936 22.78621,-3.94384 -0.68468,-6.79202 38.36958,5.0393 -0.4382,4.38192 -8.32574,0.8764 -1.31458,7.88752 -5.69655,3.06736 -4.38197,28.92104 -4.38197,29.35912 -1.75278,-22.348 -2.19099,-17.08968 3.06738,-17.96608 -35.05571,6.1348 -0.8764,11.39312 -2.62918,13.14584 -2.62917,7.88752 1.31458,32.8648 -6.57294,-46.01064 0,-18.84248 -7.88754,-5.25832 -0.87639,30.23552 6.57294,24.9772 -9.64032,-12.70768 -2.62917,-19.71888 -0.4382,-12.70768 3.94376,-10.95488 -2.19098,-10.95496 -5.69655,1.31464 -2.62918,-9.64032 -0.87639,-5.69656 4.38196,-13.14592 7.44934,-5.25832 z"
         style="fill:#e9ddaf;fill-rule:evenodd;stroke:none;stroke-width:0.80000001px;stroke-linecap:butt;stroke-linejoin:miter;stroke-opacity:1" />
      <path
         inkscape:connector-curvature="0"
         id="path5912"
         d="m 146.79582,812.86984 -10.51672,7.44936 -5.25836,15.33688 3.50558,8.76392 8.32573,-3.06736 4.38197,-0.43816 2.62917,-10.51672 -0.43819,-8.76392 4.82016,-9.20216 z"
         style="fill:#e9ddaf;fill-rule:evenodd;stroke:none;stroke-width:0.80000001px;stroke-linecap:butt;stroke-linejoin:miter;stroke-opacity:1" />
      <path
         inkscape:connector-curvature="0"
         id="path5914"
         d="m 258.53592,677.02897 15.33687,-4.82016 13.1459,2.19098 4.38197,3.50558 0.87639,13.58409 -7.44935,15.33687 -13.14589,23.66261 -5.69655,12.7077 -3.50557,-16.21327 2.19097,-12.26951 -5.69655,-21.47162 -2.19098,-10.07852 z"
         style="fill:#e9ddaf;fill-rule:evenodd;stroke:none;stroke-width:0.80000001px;stroke-linecap:butt;stroke-linejoin:miter;stroke-opacity:1" />
      <path
         sodipodi:nodetypes="ccccccccccccc"
         inkscape:connector-curvature="0"
         id="path5916"
         d="m 145.04303,699.81518 -9.64032,3.50558 -6.13475,14.89868 0.87639,12.2695 3.94377,13.58409 7.25796,10.33521 9.8317,5.87806 3.50557,0 2.19099,-10.51671 -1.31459,-11.83131 -0.8764,-15.77507 -6.57294,-20.59524 z"
         style="fill:#e9ddaf;fill-rule:evenodd;stroke:none;stroke-width:0.80000001px;stroke-linecap:butt;stroke-linejoin:miter;stroke-opacity:1" />
      <path
         sodipodi:nodetypes="ccccccccc"
         inkscape:connector-curvature="0"
         id="path5926"
         d="m 152.49237,637.59129 c 0.16075,4.82415 1.33244,8.03081 5.59935,6.28512 32.98975,-13.95912 47.02673,-13.24289 82.13715,-11.70297 5.41087,-1.14305 3.13436,-7.42297 2.97017,-12.54821 l 18.38223,29.54979 c -7.37311,-9.69906 -12.40279,-10.15528 -16.5011,-11.38021 -33.23787,-7.12783 -57.22519,2.23847 -88.12153,12.70771 -11.56806,4.63854 -10.50135,12.0848 -15.42118,18.20072 z"
         style="fill:#ac9393;fill-rule:evenodd;stroke:none;stroke-width:0.80000001px;stroke-linecap:butt;stroke-linejoin:miter;stroke-opacity:1" />
      <path
         sodipodi:nodetypes="ccccccccccccc"
         inkscape:connector-curvature="0"
         id="path5868"
         d="m 216.46906,601.65918 7.88753,-8.10664 c 7.61619,-3.62125 4.76527,-2.79593 6.51817,-3.75205 l 15.17256,-0.19171 9.42122,-6.13476 7.28113,-4.97394 -0.24568,2.97662 -4.40627,7.91298 -8.98302,4.82016 -14.24139,1.97188 -12.05041,8.32574 -6.79204,0.43819 z"
         style="fill:#99ff55;fill-rule:evenodd;stroke:none;stroke-width:0.80000001px;stroke-linecap:butt;stroke-linejoin:miter;stroke-opacity:1" />
      <path
         sodipodi:nodetypes="ccccccccscsccccccccccccccccccccccccccccccccccccccccccccccccccccccccccccccccccccccccccccccccccccccccccccccccccccccccccccccccccccccccccccccccccccccccccccccccccccccccccccccccccccccccccccccccccccccccccccccccscccccccccccccccccccccccccccccccccccccccccccccccccccccccccccccccccccccccccccccccccccccccccccccscccccccccccccccccccccccccccccccccccccccccccccccccccccccccccccccccccccccccccccccccccccccccccccccccccccccccccccccccccccccccccccccccccccccccccccccccccccccccccccccccccccccccccccccccccccccccccccccccccccccccccccccccccccccccccccccccccccccccccccccccccccccccc"
         style="opacity:1;fill:#000000;stroke:none"
         inkscape:connector-curvature="0"
         id="path4728"
         d="m 184.7195,591.94923 c 1.88,-6.28 3.73,-12.63 7.03,-18.33 3.49,11.04 10.35,23.05 23.1,24.56 0.23,1.04 0.46,2.08 0.69,3.13 3.47,-3.94 13.43214,-11.49683 15.29954,-11.5354 1.05277,0.73227 -11.00954,10.0054 -14.92954,14.1554 6.32,0.54 11.31,-3.27 16.19,-6.54 5.35,-3.7 12.37,-2.1 18.06,-4.92 4.99601,-1.98103 8.42176,-6.26738 11.87117,-10.23704 0.52058,-0.59909 -0.19771,-3.05008 1.02659,-3.89685 0.0427,0.86291 -0.35311,3.65661 -0.77911,4.45089 -1.91309,3.56691 -3.65347,7.42848 -6.81865,9.923 -5.54,3.25 -12.35,2.36 -18.38,3.97 -5.16,2.63 -9.72,6.35 -14.05,10.18 6.83,3.54 13.87,7.07 19.39,12.55 6.73,6.47 11.5,14.59 16.83,22.17 2.93,4.18 6.07,8.67 6,14.05 -0.33,3.55 1.29,8.53 -1.88,11.28 -2.78,2.54 -3.9,6.19 -4.58,9.78 6.05,-2.35 12.11,-5.82 18.82,-5.39 4.54,0.94 9.28,1.52 13.56,3.43 0.72414,0.83681 0.81537,1.24719 0.8559,2.83 0.0957,7.07 2.0841,14.73 -1.4959,21.45 -5.91,10.94 -12.99,21.25 -18.34,32.51 -5.04,9.38 -6.42,20.18 -7.76,30.59 6.48,9.62 12.13,20.27 22.12,26.79 7.94,-0.63 16.14,-2.81 24.09,-1.1 1.09,3.05 1.1,6.36 1.49,9.58 1.34259,-0.38588 3.99229,-2.25472 7.46,4.34 -0.68,5.04 -1.89,10.07 -4.22,14.63 -1.37448,0.70896 -1.11224,-0.1988 -3.07642,0.0554 -1.63948,-0.7627 -1.48358,4.92461 -2.28358,9.81461 0.89,0.77 1.77,1.57 2.65,2.38 12.2,-0.88 24.29,-2.9 36.53,-3.23 -0.51,1.84 -1.01,3.69 -1.51,5.55 -2.35,0.29 -4.69,0.59 -7.02,0.92 -0.94,4.93 -2.57,10.02 -7.8,11.68 -1.26,6.42 -2.79,12.81 -3.49,19.33 -0.59761,7.62646 -1.14479,8.77805 -2.29,17.65 -1.84,13.74 -2.91,27.58 -3.64,41.43 -1.03,-1.06 -2.04,-2.13 -3.05,-3.18 1.53,-5.28 0.46,-10.88 0.41,-16.26 -0.72,-10.7 0.86,-21.46 -0.78,-32.1 -1.33,-8.59 0.07,-17.16 1.26,-25.66 -11.19,1.48 -22.31,3.43 -33.45,5.19 -0.62,9.97 -1.62,20.01 -4.59,29.6 -2.24,6.93 -1.91,14.28 -1.85,21.47 0.72,-6.65 1.21432,-18.14016 2.37432,-24.72016 2.65,15.06 0.97568,35.19016 -0.32432,50.30016 -14.01,9.24 -31.74,6.36 -47.45,4.84 1.53,0.75 3.07,1.52 4.61,2.3 -11.33,-0.38 -22.51,-2.4 -33.7,-4.03 9.29,-0.01 18.51,1.35 27.78,1.71 -6.21,-2.77 -13.1,-5.05 -19.93,-3.73 -16.48,1.17 -31.54,10.87 -48.36,8.8 -9.7,-0.51 -21.8,0.72 -29.42,-6.65 -3.93,-10.49 4.05,-19.73 10.29,-27.27 2.54,-3.16 8.35,-3.55 8.59,-8.28 0.34,-7.4 -1.12,-14.76 -1.78,-22.1 -0.41,-6.81 -4.33,-12.64 -6.09,-19.1 -2.52986,-5.16994 -3.95823,-9.03169 -6.59,-11.79 2.93666,1.46109 4.36188,0.60074 6.4944,9.49504 -1.97,-1.64 -6.5044,-4.47504 -8.4644,-6.09504 -1.92,0.96 -3.84,1.94 -5.78,2.85 -1.13,-2.87 -2.27,-5.72 -3.41,-8.57 0.55,0.05 0.29064,0.75252 -0.19008,-1.11459 -0.56703,-1.59342 -0.32244,-0.54766 -0.77992,-2.29541 2.34,-5.57 4.34,-11.37 7.64,-16.46 2.77,-3.01 6.19,-5.31 9.36,-7.86 -1.67,-6.68 -4.14,-13.33 -3.64,-20.34 1.07,-10.22 5.6,-19.57 9.33,-29 -6.55,-3.35 -13.48634,-6.70395 -16.95,-14.12 -3.27,-6.96 -8.02,-13.8 -7.42,-21.88 0.81,-8.09 2.04,-16.86 7.92,-23.01 3.26,-2.26 7.33,-2.85 11.07,-3.91 -2.03,-4.85 -5.31,-9.03 -7.77,-13.62 -1.28,-24.69 10.78,-47.5 23.43,-67.84 2.76,-3.72 7.98,-3.83 12.01,-5.05 11.36,-3.05 23.44,-2.78 34.47,-7.18 -9.22,-1.89 -17.35,-6.7 -23.99,-13.32 m 6.11,-12.55 c -0.67,4.3 -4.97,9.11 -2.86,13.41 7.54,6.51 17.3,10.25 27.04,12 -2.19,-5.66 -8.44,-7.1 -13.1,-9.97 -4.19,-4.77 -7.45,-10.26 -11.08,-15.44 m 25.39,26.08 c -7.3,0.84 -13.93,4.33 -21.12,5.67 -9.28,1.63 -18.78,2.44 -27.7,5.66 -2.98,1.15 -4.58,4.14 -6.28,6.63 -11.08,17.89 -19.75,38.09 -20.37,59.41 5.64,-5.31 15.62,-8.51 16.42,-17.29 1.6,-9.78 3.28,-19.9 8.77,-28.37 -2.9,10.24 -4.88,20.7 -6.05,31.28 1.92,-2.35 3.73,-5.18 6.75,-6.22 3.45,-0.67 7,-0.16 10.42,0.43 1.22,-2.22 2.46,-4.44 3.77,-6.61 -0.1,2.43 -0.25,4.87 -0.38,7.3 0.43,0.15 1.3,0.45 1.74,0.6 4.31,-3.06 9.24,-5.05 14.2,-6.76 1.2,-7.72 0.36,-15.56 0.55,-23.33 3.72,7.4 7.11,15.02 9.14,23.08 -2.62,-3.94 -4.59,-8.26 -6.66,-12.5 -0.5,4.61 -1.02,9.23 -1.46,13.86 -6.27,3.4 -12.65,6.6 -19.12,9.61 -0.11,-0.71 -0.34,-2.13 -0.46,-2.84 -1.15,1.96 -2.24,3.96 -3.31,5.97 -1.90579,1.03336 -3.62656,0.15612 -4.17,2.56 -3.89,-0.35 -7.78,-0.68 -11.66,-1.02 -0.56,5.04 -0.97,10.11 -1.13,15.19 7.35,-4.26 13.63,-12.94 23.01,-11.83 0.93,6.42 3.65,12.53 3.1,19.18 -3.65,0.63 -7.31,1.21 -10.97,1.76 -2.81,-3.59 -4.63,-7.86 -4.8,-12.45 -3.03,2.98 -5.77,6.33 -7.05,10.49 -0.83,-0.42 -1.65,-0.84 -2.47,-1.24 0.6,11.71 7.87,21.33 11.34,32.19 10.87,3.57 21.85,7.46 33.44,7.22 -2.66,0.98 -5.31,2.01 -8.01,2.86 -0.08,2.12 -0.17,4.25 -0.34,6.38 -3.79,2 -7.57,4.04 -11.33,6.1 3.63,1.9 7.32,3.71 11.15,5.2 4.92,1.8 10.34,1.08 15.29,2.79 1.11,-1.07 3.32,-3.19 4.43,-4.26 5.01,0.16 10.16,0.12 14.86,-1.86 -1.57,-0.09 -3.14,-0.15 -4.71,-0.21 5,-2.63 10.08,-5.1 14.9,-8.05 -4.29,-1 -8.59,-1.96 -12.95,-2.6 2.12,1.16 4.29,2.25 6.43,3.39 -4.72,-0.51 -9.27,-1.86 -13.51,-3.97 0.62,-3.91 1.27,-7.77 1.98,-11.65 -5.34,2.15 -10.56,4.66 -16.12,6.22 8.75,-7.29 20.55,-9.07 29.68,-15.73 2.12,-2.32 6.6,-3.5 6.75,-7.14 0.44,-7.35 0.03,-14.73 0.08,-22.07 0.57,0.67 1.14,1.36 1.72,2.04 -0.84,-9.87 0.95,-19.77 2.94,-29.4 0.51,19.82 -4.91,39.68 -0.54,59.4 1.16,4.98 4.38,9.04 6.22,13.74 1.19,0.12 2.37,0.26 3.56,0.41 -5.4,-10.65 -4.94,-22.97 -3.57,-34.53 1.12,9.24 2.91,18.81 9.35,25.99 0.34,-5.33 0.84,-10.69 0.57,-16 -1.39,-8.38 -4.52,-16.36 -5.91,-24.73 -0.48,-6.61 1.75,-12.93 3.44,-19.2 -5.57,-3.66 -12.23,-4.83 -18.32,-7.25 -3.25,-3.47 -5.24,-8.05 -8.32,-11.68 0.67,2.89 1.42,5.76 2.1,8.65 -1.41,-0.31 -2.83,-0.59 -4.25,-0.85 0.02,3.01 0.58,7.22 -2.66,8.81 -4.88,2.02 -10.14,3.11 -15.37,3.74 -1.4,-6.86 5.26,-9.42 9.36,-13.1 -5.99,1.2 -11.78,3.12 -17.64,4.81 4.11,-3.27 8.12,-7.26 13.57,-8.11 4.99,0.72 9.91,1.83 14.9,2.6 -2.88,-6.96 -5.29,-14.16 -5.62,-21.74 4.36,7.76 8.39,15.79 14.06,22.72 6.68,3.06 13.51,5.79 20.2,8.85 -0.41,-5.36 1.41,-11.35 -1.64,-16.25 -5.98,-10.03 -12.16,-20.25 -20.91,-28.15 -6.73,-6.21 -15.28,-9.67 -23.31,-13.8 m -75.07,80.29 c 9.46,12.97 13.08,29.01 14.34,44.73 0.98,12.28 2.59,25.35 -3.38,36.66 -4.86,13.11 -10.3,28.3 -3.79,41.7 2.08,-9.77 6.76,-18.8 12.91,-26.62 -4.36,8.97 -7.46,18.51 -7.71,28.58 -0.89,-2.83 -1.74,-5.75 -2.57,-8.55 -0.02,3.12 0.06,6.34 0.39,9.47 -10.93,2.97 -17.07,13.85 -19.48,24.21 2.58,-1.32 5.33,-2.37 7.72,-4.02 4.43,-6.19 6.11,-15.23 13.47,-18.84 3.94,-2.8 8.61,-5.73 10.14,-10.55 1.09,-19.06 -2.95,-37.92 -3.09,-56.96 3.84,-2.25 8.49,-3.71 12.9,-2.33 4.24,1.24 9.06,4.12 13.32,1.47 3.62,-2.23 10.12,-3.66 7.84,-9.65 -8.07,-2.55 -16.33,-4.46 -24.52,-6.58 -1.12,4.55 -2.21,9.12 -3.68,13.58 0.29,-7.16 1.86,-14.46 0.16,-21.54 -2.36,-5.29 -5.41,-10.28 -7.08,-15.86 -5.09,-11.38 -2.37,-24.22 -0.57,-36.04 -4.28,7.06 -11.4,11.61 -17.32,17.14 m 125.98,-10.56 c -4.01,1.75 -10.08,2.44 -9.45,8.61 4.95,-1.69 9.55,-4.42 14.64,-5.69 5.47,-1.34 12.48,0.96 14.44,6.54 -0.17,5.31 -0.16225,5.83461 -1.15387,11.08984 -1.26342,1.22576 -1.91433,2.61584 -2.94865,4.11547 -5.25,10.3 -10.21748,18.15469 -13.64748,29.24469 -0.68,-0.47 -1.37,-0.93 -2.05,-1.38 -0.72,3.02 -1.36,5.97 -1.85,9.09 0.98,-2.18 1.94,-4.36 2.95,-6.51 -0.13,1.83 -0.27,3.68 -0.4,5.52 5.93,-14.63 16.1,-27.09 22.32,-41.54 0.05,-5.76 1.72,-12.77 -1.53,-17.91 -6.29,-3.75 -14.67,-4.56 -21.32,-1.18 m -95.95,10.3 c -1.94,5.16 3.36,7.65 7.16,8.7 4.28,0.15 2.49406,-2.59443 2.32992,-5.26308 -0.62135,-2.39305 0,0 -0.41992,-1.61692 -0.49,-3.04 -1.03,-6.22 -1.47,-9.22 -2.76,2.06 -7.81,3.19 -7.6,7.4 m 107.17,-5.57 c -0.65292,-0.24251 -1.48371,-0.24142 -2.15094,0.0514 -0.40578,0.17806 -0.75107,0.464 -0.95906,0.86864 0.05,2.2 5.03,0.78 3.11,-0.92 m -10.85,1.79 c -2.91,1.22 -5.82,2.46 -8.72,3.71 1.42,1.46 2.85,2.92 4.28,4.38 1.47,-2.71 2.96,-5.39 4.44,-8.09 m 0.57,2.68 c 1.15,1.72 2.29,3.46 3.42,5.21 1.22,-1.65 2.5,-3.26 3.78,-4.87 -1.36,-1.18 -2.72,-2.37 -4.08,-3.54 -1.05,1.05 -2.09,2.12 -3.12,3.2 m 10.2,0.76 c 0.32,0.59 0.95,1.77 1.27,2.36 1.26,-0.58 2.51,-1.16 3.77,-1.74 -0.33,1.84 -0.68,3.68 -1,5.53 l 2.24,1.44 c 0.86,-3.99 -0.14,-7.92 -2.89,-10.94 -1.15,1.1 -2.27,2.23 -3.39,3.35 m -11.88,0.68 c -0.6,3.44 -0.71,6.96 -0.2,10.43 1.34,-1.58 2.74,-3.14 3.73,-4.97 -0.76,-2.06 -2.25,-3.73 -3.53,-5.46 m 9.86,0.35 c -0.92,2.69 -4.26,5.97 -1.83,8.65 2.17,-1.28 3.73,-3.32 5.38,-5.18 -1.18,-1.16 -2.37,-2.32 -3.55,-3.47 m -14.99,3.95 c 0.38,3.75 1.43,7.4 3.02,10.82 -0.39,-3.76 -1.43,-7.4 -3.02,-10.82 m 15.74,6.66 c 0.09,2.21 0.93,4.29 1.51,6.4 2.82,-3.5 4.24,-7.91 2.85,-12.33 -1.59,1.86 -3.41,3.64 -4.36,5.93 m -8.49,1.68 c 0.59,1.71 1.57,3.25 2.47,4.81 1.32,-3.33 1.87,-6.89 1.31,-10.45 -1.4,1.76 -3.03,3.46 -3.78,5.64 m 4.06,15.7 c 1.34,-2.6 3.05,-5.06 3.97,-7.84 -0.07,-2.23 -0.93,-4.35 -1.5,-6.48 -3.94,3.77 -4.35,9.3 -2.47,14.32 m -139.59,-3.95 c -6.09,15.97 -0.3,34.3 11.6,45.99 -8.2,-12.76 -11.66,-29.02 -7.44,-43.78 1.39,-4.56 4.55,-8.23 7.95,-11.43 -4.95,1.59 -10.06,3.94 -12.11,9.22 m 130.42,-8.31 c -1.2,0.82 0.16,2.94 1.32,1.85 1.2,-0.85 -0.14,-2.91 -1.32,-1.85 m 1.89,11.18 c 1.93,-3.48 2.93,-7.43 1.72,-11.34 -2.45,3.33 -1.97,7.45 -1.72,11.34 m -123.79,-6.83 c 2.29,-0.62 4.54,-1.45 6.5,-2.81 -2.29,0.63 -4.5,1.52 -6.5,2.81 m 4.57,1.28 c 1.43,5.34 3.17,10.6 6.04,15.38 -0.99,-5.52 -2.07,-11 -3.64,-16.38 -0.8,0.32 -1.6,0.66 -2.4,1 m -7.09,8.66 c 2.57,-2.21 4.54,-5.03 5.64,-8.24 -2.82,2 -4.94,4.81 -5.64,8.24 m 129.89,-7.24 c -2.8,6.09 -5.19,12.62 -4.31,19.46 2.44,-3.18 4.81,-6.51 6.34,-10.23 0.71,-3.2 -1,-6.29 -2.03,-9.23 m -125.69,4.09 c 0.42,1.69 0.94,3.37 1.65,4.97 0.5,-1.68 0.95,-3.35 1.37,-5.04 -0.75,0.02 -2.27,0.06 -3.02,0.07 m 108.86,0.32 c 0.74,6.61 3.11,12.84 5.15,19.11 1.47,8.13 1.88,16.43 3.73,24.52 0.27,-7.49 0.36,-14.99 0.45,-22.47 l 0.8,0.04 c 0.09,8.46 0.25,16.93 0.61,25.41 2.64,-9.61 2.45,-19.57 1.52,-29.4 -0.62,0.58 -1.22,1.18 -1.83,1.78 -2.86,-6.64 -7.17,-12.55 -10.43,-18.99 m -26.9,13.06 c -3.14,3.19 -1.99,8.06 -2.22,12.12 6.79,0.38 13.57,0.91 20.3,1.91 2.38,-1.71 4.77,-3.41 7.17,-5.09 -2.98,-6.67 -6.13,-13.32 -7.58,-20.53 -5.88,3.87 -12.13,7.22 -17.67,11.59 m -84.23,-0.28 c 0.79,-3.31 1.14,-6.7 1.09,-10.09 -1.96,3.07 -2.7,6.68 -1.09,10.09 m 4.4,-7.19 c 0.28,2.25 0.57,4.5 0.86,6.76 1.14,-0.87 2.27,-1.74 3.42,-2.59 -1.36,-1.46 -2.78,-2.86 -4.28,-4.17 m 6.49,4.87 c -1.15,0.78 1.43687,4.78657 2.63687,3.97657 1.2,-0.81 -2.56881,-5.0015 -3.79881,-4.1315 m -8.54806,2.02493 c 0.28,1.92 0.59,3.83 0.93,5.75 1.09,-2.22 1.69,-4.62 1.98,-7.07 -0.73,0.33 -2.19,0.99 -2.91,1.32 m -1.42,18.49 c 3.1,6 7.41,11.33 12.42,15.85 2.92,-7.91 0.57,-16.69 -4.52,-23.16 -1.9,4.86 6.7245,17.61361 5.96598,19.31479 -0.0709,2.63778 -7.02598,-9.66479 -8.94598,-11.65479 -0.25,1.38 -0.80985,6.41076 -1.05985,7.80076 -1.21,-8.09 -4.50015,-19.15076 -6.12015,-27.15076 0.12,6.35 -0.28,12.99 2.26,19 m 7.36313,-17.88224 c -1.42,-0.08 -0.82791,4.38404 0.69209,4.39404 1.41,0.07 2.68702,-5.01374 1.16702,-5.01374 m -5.72224,12.02164 c 2.46055,-2.47282 2.80951,-4.28024 3.27,-6.8297 -2.98177,0.74053 -4.26761,5.48995 -4.35448,8.22404 m 8.67448,-8.41404 c -0.19,4.53 0.4,9.07 2.1,13.3 0.44,-4.52 0.57,-9.37 -2.1,-13.3 m 66.42,33.06 c 1.43,9.67 3.34,19.26 4.77,28.93 0.91,10.01 1.38,20.07 2.43,30.07 12.13,-9.79 28.02,-13.72 40.04,-23.49 -0.71,-15.06 -5.8,-29.58 -8.16,-44.4 0.41,-6.06 -0.66,-12.07 -2.11,-17.93 -13.85,6.55 -24.49,18.14 -36.97,26.82 m 48.21,-24.68 c -2.3,3.43 3.93,0.78 0,0 m -96.78,6.55 c 12.67142,8.30485 5.84555,-2.67721 0,0 m -7.26,1.39 c 3.29,17.08 2.48,34.6 5.82,51.67 0.87,3.2 1.3,6.89 -0.82,9.69 3.61,6.34 11.53,10.73 18.5,6.6 l 0.12,6.48 c 1.56,-2.08 3.23,-4.07 5.09,-5.88 1.34,3.98 2.35,8.04 3.04,12.19 0.41,-2.86 0.9,-5.42 1.31,-8.21 1.21,0.03 2.42,0.06 3.63,0.08 0.77,2.6 1.56,5.18 2.33,7.82 2.36,0.65 4.71,1.33 7.07,2.01 -3.15,-20.79 -4.23,-41.84 -8.54,-62.47 -2.95,-2.36 -5.51,-5.2 -8.59,-7.38 -6.82,-3.41 -13.55,-7 -20.07,-10.94 -2.65,-1.71 -5.89,-1.44 -8.89,-1.66 m -1.08,2.53 0,10 1,-10 -1,0 m 69.14,1.11 c -1.32,0.68 -1.33,1.36 -0.03,2.03 1.32,-0.69 1.33,-1.36 0.03,-2.03 m -14.85,4.8 c -2.97,1.45 -5.46,3.74 -8.18,5.62 0.05,-1.28 0.14,-2.56 0.05,-3.82 -6.17,-0.84 -12.41,-1.13 -18.51,-2.46 6.31,5.83 15.15,7.1 23.38,7.52 6.72,1.19 10.64,-5.02 15.21,-8.62 -3.98,0.56 -8.02,0.86 -11.95,1.76 m -17.89,7.24 c -0.43,1.39 0.05,1.87 1.45,1.45 0.44,-1.41 -0.05,-1.9 -1.45,-1.45 m 4.83,0.13 c 3.66,21.12 5.06,42.54 7.92,63.77 4.04,-0.73 8.1,-1.45 12.2,-1.81 -3.86,2.6 -7.81,5.15 -12.07,7.06 -3.66,1.49 -7.01,-1.59 -10.17,-3.02 -1.39,1.1 -2.78,2.2 -4.19,3.27 -0.84,-1.01 -1.66,-2.03 -2.48,-3.06 -1.16,0.98 -2.33,1.96 -3.5,2.93 -3.26,-3.65 -6.25,-7.62 -7.47,-12.49 0.09,3.11 0.41,6.21 1.07,9.25 -0.6,-0.08 -1.79,-0.26 -2.39,-0.35 -0.61,-2.33 -1.27,-4.9 -1.85,-7.15 -6.8,-3.33 -13.84,-7.59 -16.67,-14.97 -3.93,5.04 -8.27,9.85 -11.38,15.46 -2.69,8.44 -0.8,17.6 -1.66,26.3 -0.53,-4 -1.08,-7.98 -1.67,-11.94 -1.15,7.52 0.01,15.31 3.4,22.15 5.14,8.86 12.28,16.43 16.9,25.61 -5.12,-4.5 -9.13,-10.05 -13.08,-15.56 1.25,10.74 2.86,21.6 1.06,32.4 -0.63,3.31 -2.55,6.17 -4.78,8.63 0.69,-3.13 1.53,-6.23 2.29,-9.34 -2.64,2 -6.59,3.76 -6.74,7.56 -2.15,5.52 3.71,8.11 7.79,8.58 1.45,-3.36 2.74,-6.84 4.68,-9.93 4.59,-1.89 9.78,-1.69 14.59,-2.68 -0.63,0.55 -1.25,1.11 -1.87,1.68 4.43,0.88 9,1.82 12.83,4.38 6.27,4.38 13.96,5.43 21.24,7.13 -5.19,0.06 -11.36,1.89 -16.02,-1.32 -6.44,-4.11 -13.11,-9.24 -21.16,-8.8 -5.87,-0.68 -11.1,4.11 -11.37,9.83 -5.61,1.94 -11.69,2.05 -17.13,-0.35 -1.44,4.58 -3.85,10.63 0.36,14.49 11.75,6.39 25.91,3.83 38.64,3.29 10.26,-0.65 19.27,-6.44 29.46,-7.38 8.5,-1.54 17.26,-0.59 25.36,2.34 12.16,2.26 24.7,2.97 36.97,1.05 3.91,-0.96 7.24,-3.38 10.77,-5.2 -4.56,-9.58 -7.52,-19.97 -13.39,-28.89 -3.96,-4.91 -9.22,-8.69 -12.86,-13.85 -0.34,-2.6 -1.01,-7.81 -1.34,-10.41 -1.66,3.2 -3.29,6.43 -5.11,9.55 3.47,-15.78 15.31,-29.49 12.81,-46.45 -2.12,0.3 -4.24,0.65 -6.36,0.97 -1.36,-4.63 -3.17,-9.2 -3.55,-14.03 0.26,-4.56 1.92,-8.9 3.37,-13.19 -8.42,2.3 -15.11,8.17 -22.83,11.97 -3.62,1.68 -6.57,4.39 -9.34,7.19 -1.92,-9.86 -1.97,-19.92 -2.79,-29.9 -0.65,-11.32 -3.31,-22.4 -4.31,-33.68 -4.74,-0.38 -9.45,-0.77 -14.18,-1.09 m 59.88,-0.66 c 2.21,12.62 1.05,27.41 10.69,37.17 3.77,-4.03 9.09,-5.23 14.4,-5.69 -1.88273,-0.70955 -3.10006,-1.05159 -5.01,-2.07 -9.17,-7.96 -14.18,-19.08 -20.08,-29.41 m 28.52,29.32 c 6.34,-0.2 12.76,-0.17 19.01,-1.47 -6.38,-1.33 -12.83,-0.25 -19.01,1.47 m -2.49,-0.02 c -0.22,12.61 -0.65,25.23 -0.71,37.85 6.61,-0.43 13.69,0.42 19.88,-2.45 2.08,-11.53 1.76,-23.43 2.45,-35.12 -6.5,1.39 -13.12,2.14 -19.69,3.02 0.6,-0.75 1.2,-1.49 1.81,-2.22 -1.25,-0.37 -2.49,-0.73 -3.74,-1.08 m -14.96,11.16 c 2.16,-0.26 4.33,-0.47 6.51,-0.63 -3.13,3.87 -3.54,8.96 -4.78,13.63 1.29,-0.07 2.58,-0.14 3.88,-0.19 0.65,-3.71 1.31,-7.45 1.94,-11.15 1.73,-0.32 3.46,-0.66 5.2,-0.98 -0.02,-2.85 -0.04,-5.7 -0.05,-8.53 -5.12,0.85 -9.95,3.34 -12.7,7.85 m -109.22,-6.08 c 0.01,2.66 0.01,5.33 0,8 l 1.08,0 c -0.01,-2.67 -0.01,-5.34 0,-8 l -1.08,0 m 94.51,10.42 c -2.65,5.47 -3.16,11.71 -4.63,17.56 2.55,-0.23 7.66,-0.7 10.22,-0.93 2.36,-8.17 6.24,-16.2 6.37,-24.83 -4.31,2.14 -8.79,4.54 -11.96,8.2 m 52.77,-7.07 c -0.08,4.31 -0.16,8.6 -0.22,12.94 1.31,-1.21 2.39761,1.26949 3.71761,0.0795 3.00724,-2.86724 3.25298,-9.55621 -1.09761,-12.91949 -0.6,-0.02 -1.8,-0.07 -2.4,-0.1 m -29.28,18.66 c 0.84,-0.01 2.53,-0.03 3.38,-0.04 0.16,-4.63 0.07,-9.3 0.04,-13.9 -3.08,4.01 -3.24,9.08 -3.42,13.94 m -9.98,-12.56 c -1.21,5.1 -1.46537,8.39089 -3.11254,13.3185 -0.96985,2.24613 -1.69731,2.64315 -2.65716,4.28957 0.96477,1.46045 1.09746,1.67149 2.1597,3.14193 2.03,-6.77 5.22,-13.54 3.61,-20.75 m -120.82,9.71 c -0.91,4 4,-0.92 0,0 m 31.97,0.79 c -0.21,0.28 -0.61,0.85 -0.82,1.13 0.85,3.14 4.17,-1.67 0.82,-1.13 m 92.06,-0.17 c 0.56,4.77 4.93507,5.9003 8.74507,7.8803 -4.23,0.19 -8.31507,0.8797 -12.53507,0.9497 -1.5,3.26 -3.23,6.41 -5.33,9.33 6.61,-1.58 13.38,-2.67 19.74,-5.15 -0.04,-2.17 -0.55,-4.42 -0.84,-6.51 -3.51,-1.79 -6.45,-4.44 -9.78,-6.5 m -3.65,7.09 c 0.65,0.04 1.94,0.12 2.59,0.16 -0.16,-2.15 -0.33,-4.29 -0.5,-6.41 -0.74,2.06 -1.43,4.15 -2.09,6.25 m -125.77,1.45 c 1.71,-2.06 3.18,-4.31 4.39,-6.69 -1.8,1.99 -3.26,4.25 -4.39,6.69 m 44.73,5.3 c -0.24,-4.1 -0.73,-8.17 -1.46,-12.21 -0.44,4.12 -0.53,8.45 1.46,12.21 m 4.09,0.28 c 0.64,0.03 1.92,0.08 2.55,0.11 0.09,-2.62 0.25,-7.84 0.33,-10.46 -1.11,3.41 -2.03,6.87 -2.88,10.35 m -50.26,8.88 c 2.82,-4.22 3.08,-9.36 3.51,-14.26 -2.58,4.31 -4.92,8.98 -3.51,14.26 m 111.56,-13.07 c 0.37,2.5 0.75,5 1.15,7.51 2.95,-0.82 5.98,-1.46 8.84,-2.57 2.7,-8.19 -5.62,-4.73 -9.99,-4.94 m -44.76,1.24 c -0.21,0.28 -0.61,0.85 -0.82,1.13 0.85,3.14 4.17,-1.67 0.82,-1.13 m 54.34,8.55 c -0.24,1.41 -0.47,2.82 -0.68,4.25 12.06,-2.22 24.33,-3.08 36.36,-5.47 15.03,-3.07 30.41,-3.87 45.44,-6.9 -27.21,0.13 -54.35,3.35 -81.12,8.12 m 11.93,4.08 c -0.11,2.61 -0.34,7.82 -0.46,10.42 19.71,-4.78 40.02,-6.27 59.9,-10.2 0.39,-2.95 0.79,-6 1.19,-8.92 -20.28,2.44 -40.25,7.08 -60.63,8.7 m -144.45,-3.23 c 0.81,2.42 1.63,4.84 2.45,7.27 2.14,-1.17 4.41,-2.21 6.15,-3.95 0.21,-1.74 0.1,-3.49 0.05,-5.22 -2.86,0.73 -5.76,1.31 -8.65,1.9 m 131.27,4.81 c -0.44,1.13 -0.88,2.26 -1.31,3.4 0.45,-0.05 1.35,-0.16 1.8,-0.21 -5.93,13.16 -1.75,28.02 0.54,41.52 4.04,7.64 10.53,13.66 14.39,21.45 -0.63,-11.71 -1.34,-23.47 -4.07,-34.91 -1.55,-6.66 -1.4,-13.52 -1.14,-20.3 -2.18,-1.73 -4.32,-3.5 -6.46,-5.25 -0.51,14.91 0.7,29.79 2.78,44.55 -8.98,-15.12 -4.17,-32.94 -3.92,-49.35 2.59,2.53 5.24,5 7.93,7.43 0.11,-2.85 0.2,-5.7 0.29,-8.53 -2.71,0.05 -8.12,0.15 -10.83,0.2 m 66.85,0.46 c -1.93,0.73 -5.79,2.17 -7.72,2.89 -3.03,4.98 -1.78,11.44 -2.16,16.96 0.97,-4.58 1.82,-9.18 2.78,-13.75 -0.5,7.7 -2.3,15.29 -2.25,23.03 0.65,6.2 1.42,12.36 1.97,18.59 2.68,-15.89 3.35,-32.06 7.38,-47.72 m -53.9,10.57 c -0.97,9.16 0.19,18.51 2.34,27.45 4.6,-9.35 3.52,-20.29 5.45,-30.31 -2.57,0.85 -5.54,1.18 -7.79,2.86 m -20.8,27.83 c 1.89,1.7 3.74,3.45 5.61,5.19 -0.8,-7.95 -1.99,-15.85 -3.61,-23.66 -1.24,6.09 -0.8,12.37 -2,18.47 m 20.78,26.46 c 0.77,2.71 1.8,5.35 3.05,7.88 -0.56,-2.79 -1.54,-5.47 -3.05,-7.88 m -135.43,7.43 c 2.04,1.18 4.11,2.35 6.18,3.48 -1.18,-3.22 -2.44,-6.41 -3.6,-9.63 -0.88,2.04 -1.73,4.09 -2.58,6.15 z" />
      <path
         style="opacity:1;fill:#000000;stroke:none"
         inkscape:connector-curvature="0"
         id="path4730"
         d="m 247.5795,588.50923 c 5.16,-3.65 9.32,-9.18 15.88,-10.44 -4.54,4.32 -8.96,9.19 -14.7,11.89 -6.02,0.78 -12.09,0.47 -18.09,-0.19 5.61,-0.69 11.3,-0.49 16.91,-1.26 z" />
      <path
         style="opacity:1;fill:#000000;stroke:none"
         inkscape:connector-curvature="0"
         id="path4734"
         d="m 222.4795,667.91923 c 3.44,-0.29 6.9,-0.43 10.35,-0.16 -3.4,0.49 -7.01,1.51 -10.35,0.16 z" />
      <path
         sodipodi:nodetypes="ccccccc"
         inkscape:connector-curvature="0"
         id="path5820-7"
         d="m 220.63193,672.75655 1.31458,12.48859 3.06737,5.91566 5.03927,-1.09549 4.16286,-1.97188 0.6573,-10.51672 z"
         style="fill:#6c5353;fill-rule:evenodd;stroke:none;stroke-width:0.80000001px;stroke-linecap:butt;stroke-linejoin:miter;stroke-opacity:1" />
      <path
         inkscape:connector-curvature="0"
         id="path5864"
         d="m 220.41282,673.96159 1.3146,7.88754 4.82016,-2.19098 7.55888,2.19098 -2.51963,-5.91565 -7.66843,-2.73873 z"
         style="fill:#241c1c;fill-rule:evenodd;stroke:none;stroke-width:0.80000001px;stroke-linecap:butt;stroke-linejoin:miter;stroke-opacity:1" />
      <path
         style="opacity:1;fill:#000000;stroke:none"
         inkscape:connector-curvature="0"
         id="path4736"
         d="m 214.9395,673.18923 c 3.31,-0.96 6.62,-2.64 10.13,-2.33 6.45,2.26 11.74,6.68 17.16,10.69 -0.43,1.06 -0.86,2.14 -1.29,3.22 -1.65,-1.45 -3.29,-2.92 -4.96,-4.34 -1.24,2.89 0.32,7.27 -2.07,9.83 -3.14,2.24 -7.21,1.9 -10.84,2.5 -1.78,-5.82 -2.57,-11.86 -3.14,-17.89 -0.79,0.41 -1.58,0.82 -2.36,1.24 -0.88,-0.98 -1.76,-1.95 -2.63,-2.92 m 6.1,0.94 c 1.02,5.23 2.05,10.49 3.93,15.5 2.7,-0.87 5.44,-1.65 8.04,-2.79 -0.01,-2.17 -0.04,-6.51 -0.05,-8.67 -3.63,-2.19 -7.85,-3.12 -11.92,-4.04 z" />
      <path
         style="opacity:1;fill:#000000;stroke:none"
         inkscape:connector-curvature="0"
         id="path4746"
         d="m 212.1595,716.41923 c 4.27,-3.14 7.73,-7.17 11.48,-10.88 -1.86,3.2 -3.78,6.38 -6.11,9.27 -7.56,6.29 -17.79,7.39 -27.21,8.11 0,-0.5 -0.01,-1.5 -0.01,-2 7.31,-0.53 15.58,0.09 21.85,-4.5 z" />
      <path
         sodipodi:nodetypes="ccsc"
         style="opacity:1;fill:#000000;stroke:none"
         inkscape:connector-curvature="0"
         id="path4750"
         d="m 198.4295,708.21923 c 1.28658,1.00666 1.23244,1.33225 1.52,2.84 -0.6786,0.42712 -1.73803,1.08689 -2.14289,0.61262 -0.60938,-0.71387 -0.29036,-2.88784 0.62289,-3.45262 z" />
      <path
         style="opacity:1;fill:#000000;stroke:none"
         inkscape:connector-curvature="0"
         id="path4756"
         d="m 235.0795,732.81923 c 0.7,-4.78 2.42,-9.3 4.52,-13.6 -0.96,6.28 0.62,12.51 1.29,18.74 -1.4,-3.68 -2.26,-7.55 -3.02,-11.39 -0.88,2.1 -1.8,4.18 -2.79,6.25 z" />
      <path
         sodipodi:nodetypes="ccccccccccccccccccccccc"
         inkscape:connector-curvature="0"
         id="path5892"
         d="m 279.78845,732.67992 15.77507,-2.41008 11.3931,0.6573 0.21911,4.16286 1.09549,1.97189 -21.03344,5.03925 -0.21909,4.60107 8.54483,-0.2191 10.51671,-0.65729 c 0.33955,2.19727 0.13922,4.24731 -0.65729,6.13475 l -14.46048,1.53369 -5.25836,1.09548 2.19098,10.51672 5.47746,7.66844 0.87639,1.75279 -6.79204,4.38196 -4.16287,0.87639 -2.41008,-4.60106 -3.72468,-19.28064 -1.90634,-5.12237 -0.0655,-3.64156 2.41008,-10.95491 z"
         style="fill:#dbe3e2;fill-rule:evenodd;stroke:none;stroke-width:0.80000001px;stroke-linecap:butt;stroke-linejoin:miter;stroke-opacity:1" />
      <path
         sodipodi:nodetypes="ccccccc"
         inkscape:connector-curvature="0"
         id="path5896"
         d="m 302.2292,771.33981 0.51631,3.08993 -5.36065,3.01877 -1.26486,-0.56687 0.87285,-3.33689 2.89814,-3.59008 z"
         style="fill:#dbe3e2;fill-rule:evenodd;stroke:none;stroke-width:0.80000001px;stroke-linecap:butt;stroke-linejoin:miter;stroke-opacity:1" />
      <path
         sodipodi:nodetypes="cssssccsssccssscccccsscscssscsscssssscccccccccccccccsccc"
         style="opacity:1;fill:#000000;stroke:none"
         inkscape:connector-curvature="0"
         id="path4760"
         d="m 279.1295,730.33923 c 1.07393,-0.54779 2.08477,-1.14828 3.74178,-0.24422 3.85575,2.10368 5.6354,-1.70757 7.76255,-1.02092 1.65348,0.53375 4.29969,1.09096 6.4633,-0.10172 1.96018,-1.08053 4.47685,-0.71455 6.85231,-0.0379 1.71117,0.48742 1.59569,0.73688 2.70968,2.0356 1.09068,2.40142 1.41672,4.29933 1.09433,7.05933 -0.84368,1.47498 -3.5794,0.62734 -4.89984,1.89873 -1.35646,1.30607 -3.63415,0.86627 -5.47843,0.6626 -1.89135,-0.20887 -3.70691,0.12061 -5.46128,0.88163 -1.48222,0.64297 -2.81676,0.66914 -4.42098,0.86599 0.15,0.76 0.0866,2.0709 0.23658,2.8409 1.32891,0.1334 2.58578,0.92859 4.0506,-0.13296 1.03522,-0.75022 2.62161,-0.50374 3.83533,-0.10067 2.12253,0.70488 4.13782,0.95251 6.24936,0.0655 1.84675,-0.7758 2.91282,0.46042 4.90023,0.76181 0.86389,0.5126 2.45131,7.41527 -3.16051,7.73581 -1.90162,-1.59263 -3.16509,-1.0906 -5.13457,0.31423 -1.39118,1.03293 -3.42336,0.42297 -5.16044,0.2063 -2.3378,1.58053 -4.98751,0.57756 -6.08,0.23 0.19591,1.21687 0.93965,2.7528 0.21293,3.83123 -1.26042,1.87045 -0.53744,3.71141 1.18466,5.19035 1.16421,0.99982 1.87586,2.23434 1.75241,4.05842 0.17462,1.33827 1.3568,1.93898 2.26042,2.4051 1.47694,0.76187 1.30832,2.98568 1.58958,4.6549 -0.49743,0.848 -1.01456,1.86934 -1.98671,1.81799 -0.90159,-0.0476 -1.74151,1.23854 -2.6775,2.18411 -0.84263,0.85127 -2.18257,2.0987 -3.1955,1.539 -1.17555,-0.64956 -1.76437,0.39883 -2.70029,0.2689 -0.74917,-0.51682 -1.85567,-0.92513 -1.94733,-1.78884 -0.12135,-1.14345 -0.98457,-2.28028 -1.98029,-3.4436 -1.18327,-1.38245 -1.06194,-3.52067 -1.33238,-5.28756 -0.44715,-2.37048 -3.13495,-4.75895 -2.287,-7.17632 0.77862,-2.21971 0.041,-4.10481 -1.18608,-5.81986 -1.18222,-1.65239 -0.54375,-4.05872 -1.1173,-6.06278 -0.71426,-2.49569 -0.11714,-5.13034 0.64846,-7.59831 0.53039,-1.70974 0.97505,-3.46668 0.63634,-5.45005 -0.28096,-1.64519 0.78762,-3.26504 1.40558,-4.88268 0.33,-1.3 1.13,-2.44 2.62,-2.36 m 1.63,3 c -2.1,0.17 -2.79,2.48 -3.11,4.22 -0.77,4.28 -1.54,8.57 -1.91,12.91 0.32395,1.27911 0.54171,0.2637 1.02123,1.24296 0.92926,7.68697 2.56877,12.72704 4.21877,20.38704 1.63542,4.96972 1.86396,6.55985 2.87985,6.40918 3.85478,0.86754 7.98068,-3.73605 8.10216,-4.6503 1.1571,-1.88395 -3.28201,-4.18888 -4.82201,-7.09888 -1.66,-4.25 -2.01,-8.88 -2.46,-13.36 6.83,-1.11 14.00985,-1.04537 20.54,-2.85 0.90082,-0.28903 1.19194,-3.09351 0.03,-3.46 -1.3573,-1.02068 -18.08972,3.37896 -18.46,0.76 -1.10843,-3.16873 -0.1,-6.31 1.98,-8.81 1.74453,-0.54624 2.68537,1.00229 3.93493,0.60045 4.88157,-1.56982 13.5339,-0.70356 14.02268,-2.72172 0.59292,-2.7597 -1.18761,-6.10873 -4.39761,-5.85873 -7.25,-0.34 -14.45,1.12 -21.57,2.28 z" />
      <path
         style="opacity:1;fill:#000000;stroke:none"
         inkscape:connector-curvature="0"
         id="path4762"
         d="m 177.7595,740.46923 c 1.4,-2.26 2.92,-4.44 4.57,-6.51 0.2,2.98 0.11,5.98 -0.11,8.97 l -0.85,-5.21 c -1.19,0.92 -2.4,1.84 -3.61,2.75 z" />
      <path
         style="opacity:1;fill:#000000;stroke:none"
         inkscape:connector-curvature="0"
         id="path4770"
         d="m 231.1495,770.54923 c 4.36,-2.62 9.26,-2.62 13.95,-0.7 0.15,-0.57 0.46,-1.69 0.62,-2.26 3.84,7.27 12.25,16.05 7.29,24.7 -2.11,4.73 -8.11,3.99 -12.24,5.45 0.17,1.48 0.31,2.96 0.47,4.45 -1.74,-0.05 -3.49,-0.07 -5.22,-0.1 -1.23,-10.59 -4.88,-20.78 -4.87,-31.54 m 6.05,0.73 c 0.69,8.32 1.5,16.65 3.22,24.83 2.68,-1.58 6.36,-2.16 8.22,-4.74 0.39,-8.03 -2.38,-18.38 -11.44,-20.09 z" />
      <path
         style="opacity:1;fill:#000000;stroke:none"
         inkscape:connector-curvature="0"
         id="path4772"
         d="m 173.2595,768.77923 c 6.32,3.07 15.74,3.89 18.09,11.74 1.04,2.55 2.33,6.78 -0.83,8.27 -4.3,1.52 -8.71,2.66 -13.24,3.43 -0.36,4.43 -0.72,8.87 -0.73,13.32 -1.44,-0.16 -2.88,-0.31 -4.32,-0.43 -0.05,-12.13 0.37,-24.24 1.03,-36.33 m 5.08,6.36 c -0.57,4.39 -1.11,8.76 -1.4,13.18 4.13,-0.2 9.27,0.64 12.19,-3.02 0.99,-6.18 -4.59,-11.69 -10.79,-10.16 z" />
      <path
         sodipodi:nodetypes="csscsscssscccssc"
         style="opacity:1;fill:#000000;stroke:none"
         inkscape:connector-curvature="0"
         id="path4774"
         d="m 295.0095,776.59923 c -0.0659,-0.90746 0.36378,-1.90454 1.10265,-2.35865 0.93309,-0.57349 1.26085,-1.42519 1.28327,-2.41705 0.0251,-1.11202 0.69648,-3.21788 1.68408,-2.8843 0.69679,-0.0377 1.74993,-0.0814 2.10125,0.62671 0.51349,1.03498 1.19148,1.73625 1.94576,1.82488 1.08443,0.12743 0.93808,1.80528 0.63299,2.34841 -0.14097,0.32419 -0.63475,0.5248 -0.70154,0.97036 -0.15799,1.05396 -1.17259,0.55979 -1.50613,1.16138 -1.15405,2.08154 -2.42867,0.85244 -3.3732,1.54683 -1.57268,1.15619 -2.92408,0.66998 -3.19652,0.0578 m 3.41739,-4.96639 c -0.21,0.28 -0.61,0.85 -0.82,1.13 -0.59688,0.93132 -1.39894,3.1614 -0.70959,3.33174 0.98753,0.24401 4.57369,-2.05471 4.93233,-2.54242 1.26997,-1.727 -0.46868,-6.29459 -3.40274,-1.91932 z" />
      <path
         inkscape:connector-curvature="0"
         id="path5876"
         d="m 288.47193,790.12182 8.05614,-1.54926 13.32363,-0.6197 0.30984,4.64777 -0.6197,28.50633 -1.54926,7.43648 -20.76006,2.4788 0.30986,-21.6896 z"
         style="fill:#c6e9af;fill-opacity:1;fill-rule:evenodd;stroke:none;stroke-width:0.80000001px;stroke-linecap:butt;stroke-linejoin:miter;stroke-opacity:1" />
      <path
         sodipodi:nodetypes="ccccccc"
         inkscape:connector-curvature="0"
         id="path5878"
         d="m 294.35911,805.6144 4.02807,7.74632 8.29404,1.11265 -9.84329,3.22527 -2.25811,0.18148 -1.15027,-10.09676 z"
         style="fill:#ffcc00;fill-rule:evenodd;stroke:none;stroke-width:0.80000001px;stroke-linecap:butt;stroke-linejoin:miter;stroke-opacity:1" />
      <path
         style="opacity:1;fill:#000000;stroke:none"
         inkscape:connector-curvature="0"
         id="path4782"
         d="m 293.4395,804.68923 c 0.92,-3.44 3.56,-6.01 5.71,-8.72 1.49,1.2 2.98,2.43 4.41,3.72 -2.51,1.21 -5.24,2.16 -7.31,4.1 -0.04,2.45 0.19,5.67 2.15,7.54 2.72,0.68 5.59,0.63 8.39,0.92 0.25,1.17 0.51,2.35 0.79,3.53 -4.23,2.11 -8.72,3.95 -13.52,3.18 -0.29,-4.75 -1.04,-9.54 -0.62,-14.27 m 0.59,2.87 c 0.41,3.1 0.84,6.23 1.29,9.35 3.46,-0.71 6.94,-1.4 10.35,-2.33 -2.63,-0.35 -5.57,0.01 -7.89,-1.46 -1.58,-1.61 -2.58,-3.67 -3.75,-5.56 z" />
      <path
         sodipodi:nodetypes="ccc"
         style="opacity:1;fill:#000000;stroke:none"
         inkscape:connector-curvature="0"
         id="path4788"
         d="m 312.5295,820.50923 c 5.56293,-0.30623 24.22973,5.00984 1.3,1.92 -2.06477,1.28209 -6.77911,-0.009 -1.3,-1.92 z" />
      <path
         style="opacity:1;fill:#000000;stroke:none"
         inkscape:connector-curvature="0"
         id="path4792"
         d="m 316.2695,821.55923 c 2.5,0.25 7.5,0.75 10,1 -2.5,-0.25 -7.5,-0.75 -10,-1 z" />
      <path
         sodipodi:nodetypes="ccc"
         style="opacity:1;fill:#000000;stroke:none"
         inkscape:connector-curvature="0"
         id="path4794"
         d="m 313.55632,821.49997 c 4.66,0.2 30.87469,3.74344 35.51469,4.31344 -4.7,0.46 -30.96469,-3.10344 -35.51469,-4.31344 z" />
      <path
         style="opacity:1;fill:#000000;stroke:none"
         inkscape:connector-curvature="0"
         id="path4810"
         d="m 175.0895,856.46923 c 7.76,8.24 14.77,17.75 24.91,23.26 3.45,1.61 7.29,2.18 10.87,3.47 -5.23,0.59 -10.8,-0.04 -15.2,-3.1 -8.5,-6.18 -16.49,-13.74 -20.58,-23.63 z" />
      <path
         style="opacity:1;fill:#000000;stroke:none"
         inkscape:connector-curvature="0"
         id="path4816"
         d="m 225.9995,894.26923 c 4.93,-10.88 7.2,-22.7 10.89,-34.01 0.58,2.46 1.12,4.93 1.61,7.43 -0.7,-1.08 -1.39,-2.15 -2.09,-3.21 0.28,3.68 0.38,7.37 0.16,11.07 -0.66,-0.63 -1.31,-1.24 -1.96,-1.85 0.7,12.11 -6.18,23.83 -14.46,32.21 1.74,-3.98 4.11,-7.65 5.85,-11.64 z" />
      <path
         style="opacity:1;fill:#000000;stroke:none"
         inkscape:connector-curvature="0"
         id="path4824"
         d="m 243.0195,913.50923 c 8.31,-2.63 14.96,-8.35 22.64,-12.15 -6.13,6.18 -12.01,12.97 -19.71,17.29 2.09,-2.34 4.35,-4.5 6.6,-6.66 -3.16,0.57 -6.36,1.01 -9.53,1.52 z" />
      <path
         style="opacity:1;fill:#000000;stroke:none"
         inkscape:connector-curvature="0"
         id="path4826"
         d="m 209.4195,910.71923 c 1.7,0.51 3.41,1.03 5.12,1.56 -2.48,0.5 -4.95,1 -7.43,1.45 0.76,-1.02 1.53,-2.02 2.31,-3.01 z" />
      <path
         sodipodi:nodetypes="cccc"
         inkscape:connector-curvature="0"
         id="path5837"
         d="m 171.88257,687.76478 c 2.13377,-2.22141 4.62239,-2.66862 7.33979,-1.97188 1.11364,3.70631 2.26112,7.44645 -0.32865,7.44934 -4.26379,-0.34371 -6.54488,-2.21257 -7.01114,-5.47746 z"
         style="fill:#c8b7b7;fill-rule:evenodd;stroke:none;stroke-width:0.80000001px;stroke-linecap:butt;stroke-linejoin:miter;stroke-opacity:1" />
      <path
         sodipodi:nodetypes="cccc"
         inkscape:connector-curvature="0"
         id="path5839"
         d="m 223.37065,681.95868 c 2.6305,-1.77213 5.8413,-1.80641 8.76393,0.2191 -0.14756,2.31054 1.75218,5.44076 -4.05332,6.13475 -4.44196,1.19562 -3.75488,-3.52689 -4.71061,-6.35385 z"
         style="fill:#c8b7b7;fill-rule:evenodd;stroke:none;stroke-width:0.80000001px;stroke-linecap:butt;stroke-linejoin:miter;stroke-opacity:1" />
      <path
         sodipodi:nodetypes="ccccc"
         inkscape:connector-curvature="0"
         id="path5841"
         d="m 175.16904,680.31545 c -0.95872,2.11579 -0.15863,2.91247 1.20504,3.28647 1.63593,-0.21913 3.25206,-0.5372 4.60106,-2.19098 -0.14274,-1.81823 -0.78278,-3.21021 -2.95782,-3.28648 -1.76605,0.567 -2.53832,1.33277 -2.84828,2.19099 z"
         style="fill:#e3dbdb;fill-rule:evenodd;stroke:none;stroke-width:0.80000001px;stroke-linecap:butt;stroke-linejoin:miter;stroke-opacity:1" />
      <path
         sodipodi:nodetypes="ccccc"
         inkscape:connector-curvature="0"
         id="path5841-4"
         d="m 228.01754,678.23401 c -0.95872,2.11579 -0.15863,2.91247 1.20504,3.28647 1.63593,-0.21913 3.25206,-0.5372 4.60106,-2.19098 -0.14274,-1.81823 -0.78278,-3.21021 -2.95782,-3.28648 -1.76605,0.567 -2.53832,1.33277 -2.84828,2.19099 z"
         style="fill:#e3dbdb;fill-rule:evenodd;stroke:none;stroke-width:0.80000001px;stroke-linecap:butt;stroke-linejoin:miter;stroke-opacity:1" />
      <path
         sodipodi:nodetypes="cccc"
         inkscape:connector-curvature="0"
         id="path5858"
         d="m 172.8685,688.42208 c 2.22946,1.05195 4.88139,4.53318 6.02521,-0.6573 0.0814,1.49717 1.21322,2.99435 0,4.49152 -1.77023,0.50822 -3.67472,0.01 -6.02521,-3.83422 z"
         style="fill:#ffe6d5;fill-rule:evenodd;stroke:none;stroke-width:0.80000001px;stroke-linecap:butt;stroke-linejoin:miter;stroke-opacity:1" />
      <path
         sodipodi:nodetypes="cccc"
         inkscape:connector-curvature="0"
         id="path5860"
         d="m 225.23298,684.36876 c 1.97189,1.83154 3.94377,2.8618 5.91566,-0.2191 -0.6782,1.29087 0.69076,2.95396 -2.84828,3.72468 -1.23749,-0.63095 -2.9131,-0.1666 -3.06738,-3.50558 z"
         style="fill:#ffe6d5;fill-rule:evenodd;stroke:none;stroke-width:0.80000001px;stroke-linecap:butt;stroke-linejoin:miter;stroke-opacity:1" />
      <path
         inkscape:connector-curvature="0"
         id="path5872"
         d="m 222.47352,725.98252 14.87288,-8.05614 6.81674,-5.26748 7.43644,21.37976"
         style="fill:none;fill-rule:evenodd;stroke:none;stroke-width:0.80000001px;stroke-linecap:butt;stroke-linejoin:miter;stroke-opacity:1" />
      <path
         inkscape:connector-curvature="0"
         id="path6047"
         d="m 246.9518,776.1785 4.33793,8.67584 -2.16897,8.9857 4.33793,-10.2251 z"
         style="fill:none;fill-rule:evenodd;stroke:none;stroke-width:0.80000001px;stroke-linecap:butt;stroke-linejoin:miter;stroke-opacity:1" />
      <path
         style="opacity:1;fill:#000000;stroke:none"
         inkscape:connector-curvature="0"
         id="path4734-0"
         d="m 166.31782,676.22975 c 3.21881,-1.24779 6.49909,-2.35729 9.88533,-3.07059 -3.12407,1.4284 -6.30024,3.4245 -9.88533,3.07059 z" />
    </g>
  </g>
</svg>
